<?xml version="1.0" encoding="UTF-8"?>
<svg id="Layer_2" data-name="Layer 2" xmlns="http://www.w3.org/2000/svg" viewBox="0 0 1098.47 491.26">
  <defs>
    <style>
      .cls-1 {
        fill: #4d1cd9;
      }

      .cls-2 {
        fill: #03150f;
      }

      .cls-3 {
        fill: #cecece;
      }

      .cls-4 {
        fill: #01ea8c;
      }
    </style>
  </defs>
  <g id="Layer_1-2" data-name="Layer 1">
    <g>
      <path class="cls-2" d="M361.19,1.18c1.92,25.91-3.76,51.45-8.78,76.77,4.74,1.39,10.7,3.14,14.98,5.53,1.57.87,10.29,8.31,10.94,7.55l-.92-12.37c7.55-5.67,5.73,2.22,8.46,6.35,3.84,5.82,20.34,11.1,27.03,11.09,2.45,0,8.33-7.84,9-10,1.69-5.46-2.88-19.79,6.3-15.9,1.17,9.02-.55,13.86,8.87,17.61,1.6.64,10.54,3.99,10.19.76.64-3.89-6.47-19.3-2.39-20.53,2.99-.9,5.76,5.48,8.56,7.4,6.12,4.2,16.16,7.01,22.9,10.59.51-3.97-6.24-17.22-3.04-19.57,2.83-2.08,6.23,2.8,8.12,4,9.34,5.93,17.76,9.94,28.93,11.56.87-3.75-4-18.6,1.52-19.07,3.39-.29,5.37,4.77,7.95,7.1,6.58,5.92,13.55,8.93,22.53,8.98l.14-12.85c.96-.37,2.18-1.07,3.19-.9,5.68,1.01,17.43,16.42,28.21,17.73,1.79.22,1.51.09,1.44-1.5-1.39-29.59,4.41-13.97,15.7-6.65,2.36,1.53,16.92,8.54,18.33,7.16-1.74-5.42-.26-9.57,0-14.5.07-1.4-1.97-6.9.66-7.55,5.35-1.32,4.68,2.39,6.37,4.31,5.45,6.18,15.7,12.99,23.97,13.74,1.98-3.97-6.86-17.7-2.47-18.99,1.79-.53,12.62,8.62,15.6,9.37l15.87,6.62c.89-3.58-4.75-18.05-1.84-19.85,5.44-2.92,5.78,5.63,10.27,4.93.47-.07,3.97-6.81,5.06-8.1,23.26-27.75,72.13-21.5,99.86-3.81,3.69,2.35,22.51,19.9,25.66,16.84,1.62-6.31-6.27-22.04,4.86-19.84,2.37,6.65,7.91,11.44,13.14,15.83,1.36-10.21.54-16.97,6.58-25.93,4.17-6.19,8.02-6.31,11.96-10.03s4.97-7.48,10.99-11.01c4.61-2.7,22.27-6.18,20.38,1.3-.35,1.39-9.73,5.86-12.42,8.66-3.86,4.01-5.92,8.46-6.47,14.02l14.38-7.11c5.85-8.42,13.64-11.5,23.88-9.64,13.3,2.41-1.74,9.11-4.67,13.86-2.5,4.04-2.27,8.93-4.08,12.92-1.09,2.41-3.39,3.45-3.51,5.98.84.83,7.09-4.25,8.75-4.74,3.12-.93,8.47-.43,11.51-1.31.85-.25.87-1.69,1.5-1.87,6.87-1.98,15.83-3.96,22.19.48,7.78,5.43-1.97,5.47-5.9,8-6.37,4.09-4.8,7.67-6.99,13.01-.7,1.7-5.61,10.92-5.05,11.44,6.65-1.65,9.66-8.02,17.94-6.05l.51-10.94,5.54-2.01c.02,3.51,1.61,13.1,5.65,13.84,1.04.19,8.17-3.37,10.94-3.74,2.2-.29,10.39.22,11.37,2.44l-.58,2.54c-3.28.77-11.22,8.21-10.33,11.28,1.65,1.3,13.1,8.51,13.94,7.64-.02-3.98,1.29-7.44,1.06-11.53s-2.68-6.7-1.03-10.46c7.38-.42,7.35,8.24,10.16,13.31,7.92,14.28,25.24,12.92,36.34,23.66,2.25.67,1.51-2.02,1.52-3.52.05-5.51-5.94-21.32,4.03-19.03,2.99,4.83,1.15,10.85,2.15,15.84,2.22,11.02,19.29,21.58,22.79,32.72l3.49-13.99c1.19-2.07,4.88.17,5.38,1.68.9,2.74-2.12,9.91-.68,14.62.75,2.45,8.74,9.19,10.99,13.01,3.45,5.84,3.92,12.9,6.38,17.62,1.08,2.08,4.58,4.28,6.26,6.74,6.98,10.19,9.69,21.8,11.15,33.85,1.18,9.69.87,9.12,3.77,18.23,5.09,15.98,3.58,27.23,5.25,42.75,1.46,13.63,5.83,29.65,5.03,43.05-.93,15.52-9.77,30.51-11.02,44.98-2.4,27.68-1.97,57.85-2.64,85.82-.11,4.48,3.3,13.91-3.82,14.72-13.64,1.56-28.46-.94-42.02-1.1-10.08-.12-27.25-.94-36.24,2.84-3.59,1.51-7.75,5.36-10.96,7.04-9.99,5.2-39.65,12.94-50.95,14.11-21.31,2.21-43.47-1.38-64.79.14-12.63.9-26.86,5.94-39.11,6-22.19.09-48.51-10.12-72.93-9.94-19.45.14-39.47,7.89-59.24,7.48-13.43-.28-25.98-4.53-39.82-3.61-21.61,1.43-40.05,8.57-63,6.97-5.92-.41-13.32-2.88-19.01-2.98-9.32-.16-21.37,2.6-31.01,2.99-19.32.77-35.43-3.11-53.94-4.04-24.98-1.25-50.25,5.15-76.08,3.08-7.84-.63-17.94-3.77-25.86-3.93-24.87-.52-47.82,10.22-72.98,7.77-10.9-1.06-22.14-5.26-33.09-5.91-17.21-1.03-34.47,4.27-52.08,3.08-11.44-.77-23.63-4.55-35.17-5.59-14.36-1.29-51.72,4.06-59.5-9.75-1.33-2.35-1.66-6.91-3.44-7.55-14.73-.86-29.23-3.14-43.86-5.15-2.55-.35-5.32.33-7.93-.06s-7.35-3.94-8-4.02c-5.99-.77-31.6,1.71-34.29-1.21-1.06-1.15-1.61-5.82-2.94-6.79-2.74-2-16.71-6.6-20.81-7.95-6.74-2.22-13.64-3.81-20.54-5.45-2.4-1.79.15-6.25.06-8.98-2.1-59.36-1.55-119.69.06-178.94.05-1.95,1.09-4.56,1.38-6.62l72.89,1.07c6.02-7.96-1.53-15.8-1.45-24.56.02-2.27,1.4-11.03,3.07-12.06,5.12-3.15,9.17,9.85,12.01,13.05,6.58,7.42,11.08,7.14,20,4,14.73-5.18,37.44-21.49,47.4-33.6,2.6-3.16,4.85-6.71,6.62-10.41.35-1.93-.29-1.26-1.28-1.72-1.99-.91-15.56-4.87-17-4.57-4.89,1.03-16.23,15.08-18.12,14.76-7.93-1.32.43-23.83-1.07-26.95-2.16-4.47-15.88-5.01-20.28-5.77-5.81,2.8-10.35,7.37-13.65,12.87-2.22,3.7-2.12,10.88-7.96,9.78-4.77-1.53-5.83-22.96-4.68-27.88l-37.83-1.86c-2.61,5.02-5.17,9.96-7.2,15.29-1.06,2.76-.69,9.92-5.65,7.83-5.78-2.44-9.91-12.91-10.3-18.8-.21-3.21,1.34-7.94.85-9.75-.62-2.32-4.5-4.27-4.9-9.23-.22-2.67.61-15.4,1.53-17.54,1.03-2.41,2.67-2.13,3.3-3.63,1.73-4.11.04-9.35,4.79-13.25,4.22-3.47,9.99-.99,12.23-2.28.32-.19,2.88-4.37,4.71-5.78,8.61-6.66,22.86-5.95,32.78-2.79,6.07,1.93,12.32,7.1,17.27,8.73,7.47,2.45,18.85,2.65,26.69,4.31,8.89,1.88,17.04,5.41,25.75,7.74-2.82-8.12-3.6-16.64-1.56-25.06,1.17-4.8,2.59-9.31,3.79-14.21,1.34-5.46,8.56-20.61,14.42-21.47.87-.13,3.17.46,3.41,1.41.2,5.97-2.78,12.69-1.82,18.58.88,5.38,6.89,9,7.78,14.74l5.96-19.52c3.41-5.85,10.02-19.09,18.09-13.82-2.78,11.24-6.9,20.03-1.05,31.33l5.96-9.52c4.66-2.28,4.15-5.75,6.51-9.49,3.3-5.21,9.94-14.6,17.01-14.02,5.96.49-2.85,12.27-3.41,16.62s.28,7.36,1.92,11.41c7.63-3.82,7.84-11.01,12.46-17.02,2.26-2.94,13.57-13.65,13.57-4.53,0,5.98-5.3,11.94-4.01,19,.6,3.28,5.05,10.71,8.42,5.51.25-.39,2.93-7.68,3.25-8.75.77-2.65,2-8.93,2.28-11.72.32-3.16-1.43-16.02,2.5-16.29,2.47,1.33,4.99,2.82,7.05,4.76,7.59,7.17,8.41,12.53,11.76,21.24,1.53,3.98,6.07,7.95,6.8,12.72,11.58-2.46,23.48-7.36,35.47-5.2L354.44,1.64c1.49-2.71,4.53-1.47,6.75-.46ZM305.36,184.99c4.53.26,9.4,4.09,13.01-.43,1.19-1.49,5.57-10.33,6.46-12.53,14.69-36.34,25.13-99.1,29.51-138.49.87-7.83,2.8-15.53,1.98-23.5l-30.04,62.45c-10.39,25.22-22.77,50.12-30.47,76.53-2.81,9.63-5.39,19.36-6.38,29.36l9.88,4.65c3.36-10.59,6.05-21.42,9.54-31.98,9.14-27.66,17.29-57.16,27.45-84.55.41-1.1,6.06-14.74,8.02-12.47-2.58,20.41-10.53,39.38-16.7,58.79-5.15,16.19-10.38,31.61-15.56,47.44-.97,2.96-7.55,23.76-6.71,24.73ZM861.33,18.03c-2.79-1.81-10.11,5.57-8.99,6.99l3.98.57,5.01-7.56ZM890.33,26.03l-11.35,3.92-.69,2.52,6.95,2.47,5.08-8.91ZM850.21,62.89c-8.85,1.08-5.48-12.69-3.37-17.86,1.8-4.41,6.37-8.41,5.52-13.48s-8.63-.12-11.06,1.94c-8.11,6.88-8.05,15.46-9.2,24.8-.24,1.96-2.02,4.06-1.82,6.23.37,3.86,17.78,10.35,21.75,12.29,2.26,1.11,3.29,3.86,6.29,3.21,1.75-8.99-.48-17.03-.99-26,6.46-.57,4.64,3.91,6.79,7.7,2.45,4.31,16.8,21.7,21.65,20.29,2.93-.85,2.32-20.75,3.49-21.54h4.11c1.38,3.18,5.83,14,9.42,14.58,1.74.28,3.62-4.89,4-6.05,1.53-4.69,3.14-9.76-2.11-12.86s-10.11-2.52-14.87.88c-3.5,2.5-9.63,11.14-12.51,12.5-4.28,2.03-4.98-4.61-4.56-7.56.71-5.04,17.23-24.75,2.09-24.96-12.83-.18-20.51,15.84-24.64,25.88ZM854.34,41.02h1.48s1.5-1.5,1.5-1.5l-2.97.52v.98ZM769.08,48.27c-1.75-1.87-17.76-9.57-15.81-.79l3.96,2.11c-1.4,2.08.16,8.45,1.34,10.19.38.56,10.19,4.26,11.24,4.26,2.32-2.8,1.26-13.66-.73-15.78ZM918.33,49.03l-9,1c-.61,2.34,1.75,5.73,4.41,4.93.36-.11,5.25-5.38,4.59-5.94ZM264.1,52.35c-.96-.44-1.77-.37-2.76-.32l-2,13c1.39,1.32,8.37-2.67,8.88-4.69.45-1.79-2.81-7.39-4.12-7.99ZM216.33,54.03c-1.7-1.78-8.56,8.46-6.99,10.99,2.98,2.98,6.8-8.85,6.99-10.99ZM179.34,67.02l4.51-.98,1.47-10.02c-2.63.41-7.3,9.69-5.98,10.99ZM791.33,64.04l-15-7-2.09,10.39c5.62,2.37,7.28,7.93,14.09,4.6l-.93-3.86c1.86-.63,4.26-1.69,3.93-4.12ZM839.08,82.77c.56-.68,1.35-3.88.83-4.75-.49-.81-13.05-7.55-16.04-10.02-3.7-3.05-6.51-7.26-10.52-9.97-1.28,9.87-1.16,9.63,5.47,16.05,3.18,3.07,16.71,12.98,20.26,8.69ZM239.33,59.03c-3.35-.77-8.18,8.9-6.99,9.99h5c-.79-3.93,1.07-6.48,1.99-9.99ZM764.33,67.04l-14.99-5c.42,3.74,0,6.28-1.98,9.42,4.48,5.62,9.01,2.13,14.98,2.57-3.08-5.08,1.64-3.16,2-6.98ZM724.34,70.03l-18-6c-2.59,14.32,8.43,17.24,19.99,12.98l-2.9-2.55.91-4.43ZM271.29,67.07c-.54-.38-10.01,3.81-10.9,4.52-7.86,6.2,8.97,15.1,2.3,21.3-5.61.3-9.99-.49-15.35,1.65-1.85.73-6.99,5.36-8.89,2.38-1.51-2.37,8.01-24.37-6.63-22.97-10.3.99-8.72,19.2-11.61,20.94-4.5,2.72-6.4-5.37-6.76-8.46-.78-6.73,4.17-23.16-9.04-13.82-3.48,2.46-7.17,9.26-7.63,13.38s2.47,8.83-3.11,11.95c-2.44.75-4.7-3.32-5.52-5.21-1.97-4.55-2.21-20.71-6.3-20.74-5.07,2.01-7.19,13.71-6.44,18.42.12.74,1.62.7,1.86,1.4.9,2.68,2.03,6.34.14,8.81-3.78,2.74-10.47-7.37-11.84-10.31-2.44-5.24-3.04-19.96-12.79-14.32-9.66,5.59-7.54,30.47.21,35.9,5.31,3.72,35.6,8.8,41.64,7.16,8.9-15.13,29.22-18.56,44.71-11.51,3.23,1.47,6.12,4.87,9.56,5.44l42.82,1.92c2.3-.68,1.16-3.58,1.89-5.11,4.27-8.96,6.3-13.64,8.81-23.19.53-2.02,2.33-3.28,1.93-5.56l-23.32,5.89c-2.78-.86-2.41-6.21-3.45-8.62-1.72-3.96-5.31-6.88-6.27-11.23ZM692.33,76.04l-17.99-9.01c.1,2.78-.64,11.44,1.72,13,3.52,2.32,10.15,2.08,14.27,1.98-1.24-3.93,1.92-3.09,2-5.98ZM614.33,85.03c5.83,2.17,20.51,6.5,15.98-4.49l-15.98-9.51v14ZM659.24,78.95c.5-1.28-.02-1.64-.97-2.36-.59-.44-12.46-6.08-12.93-5.56l.61,11.1c3.15.3,5.59,3.92,8.64,3.71,5.55-.37.23-6.63,4.65-6.9ZM552.96,77.41c-.93-.71-4.9-4.17-5.62-3.38-.27,7.46,3.18,7.46,7.52,11.02,1.32,1.08,7.92,9.15,8.55,2.46.35-3.76-5.96-5.7-8.45-7.66-.99-.78-1.39-1.98-2-2.45ZM871.81,79.57c-1.06-1.27-6.91-7.14-8.47-5.53v11s10,0,10,0c.55-3.59.08-3.53-1.53-5.46ZM586,76.38c-.81-.54-4.39-1.65-4.66-1.35l-.91,10.91c5.39.8,9,4.49,14.84,3.02l.64-5.95c-2.3-1.63-4.92-2.17-7.37-3.72-1.33-.84-1.81-2.43-2.54-2.92ZM867.34,90.02l-.46,4.04-2.07,1.05c-13.33-7.37-27.6-3.2-40.79-10.26-6.24-3.34-10.88-9.66-18.31-9.72-4.26-.04-10.43,3.61-15.77,1.84-1.91,7.91-7.37,1.71-13.11,1.06-3.72-.42-14.32-.05-17.77,1.01-1.33.41-1.47,3.5-3.37,3.87-5.82-2.04-11.54-4.49-17.87-3.88-1.35.13-13.27,3.5-13.86,3.91-1.16.81-.71,4.33-3.32,4.95-11.3-2.42-22.81-1.87-34.32-1.86v5.01c-3.93,1.17-6.72-2.14-9.71-2.78-9.36-2-20.11,4.06-29.79,4.76-13.24.96-31.97,2.15-44.99,2.09-4.3-.02-10.58-2.06-14.89-1.98-8.14.15-14.65,3.65-24.1,2.88-18-1.46-31.55.38-49.28,2.75-2.79.37-6.05,1.24-8.71,1.32-7.66.22-28.12-3.57-33.87.87-1.02.79-.8,2.59-1.61,3.62-1.76,2.25-9.5.21-12.5.43-4.28.31-19.19,3.07-22.27,5.32-.93.68-1.05,3.09-2.96,3.57s-9.3-1.97-12.77-1.9c-1.5.03-14.81,2.68-15.41,3.19-.53.46.16,3.03-1.76,3.72-3.86,1.4-10-.96-13.84-.92-12.33.12-22.52,7.13-33.54,11.54l-1.02,1.94c3.89,8.63,5.21,19.1,11.01,26.78.53.71,5.3,5.57,5.69,5.67,1.53.4,4.47-1.57,6.79-1.92.94-.14,3.82-.62,3.51,1.02-6.75,2.26-44.9,24.78-43.93,30.38,13.99,15.23-3.11,31.8-20.41,23.73-1.99,2.24-8.91,11.61-7.23,13.94,1.07,1.48,13.19,6.24,15.99,10.04s6.95,15.81,2.61,19.45l-2.06-.12c.16-4.2-5.02-6.46-6.03-8.1-1.35-2.2-2.52-10-4.2-12.05-.88-1.08-16.57-6.88-18.47-7.05-6.15-.53-13.67,3.65-17.77,3.65-2.59,0-6.59-2.46-9.99-2.88-10.29-1.26-33.67-1.08-33.34,13.29.26.87,1.02,1.81,1.83,2.22,4.64,2.31,20.73-5.16,27.67-5.43,3.33-.13,6.05,1.09,9.32.93l-.15,4.82c-8.08,3.9-18.35,6.08-24.85,12.65-2.47,2.49-3.63,3.51-2.99,7.51,12.16,2.1,21.21-12.98,33.58-9.07l-.04,4.1c-5.58,2.96-22.1,16.21-21.58,22.46.1,1.18.53,2.01,1.7,2.43,9.34-1.51,13.23-11.12,23.3-13.46,13.01-3.02.77,8.63-1.16,11.84s-6.55,13.98-3.34,16.76c9.05,7.85,19.76-12,22.51-18.6,7.1-1.2,14.41.02,21.53-.47,30.84-2.11,63.07-22.42,82.96-45.07,3.91-4.46,2.05-2.61,4.64-7.33,9.89-17.97,17.94-33,19.9-54.11.54-5.8-.76-11.77,1.02-17.49,1.57-.29,2.19.33,2.77,1.72,7.17,17.27-5.98,49.31-14.26,65.3-1.26,2.44-8.37,12.68-7.52,13.97,6.24,2.29,13.13.43,18.72-2.72,3.23-1.82,9.46-9.9,11.76-10.29,2.15-.36,1.62.88,1.42,2.41-.62,4.78-3.18,6.39-3.91,10.6,11.11,3.09,18.22-.06,26.52-7.02,1.8-1.51,4.72-7.63,7.36-1.62l-4.86,7.15c6.84,4.62,17.39,2.82,24.51-.47,2.88-1.33,12.19-8.64,13.12-8.82s4.06.6,3.38,2.29l-5.01,6c9.13,7.05,24.7-2.44,32.48-8.5,2.6-2.03,3.46-6.56,6.51-4.5l-4,10.49c4.27-.08,8.05,1.63,12.44.94,3.48-.54,17.63-8.87,19.55-6.93.94,4.74-2.09,4.68-4.74,6.7-.85.65-1.81-.01-1.26,2.28,8.74,2.33,20.9.16,27.97-5.52,4.02-3.23,10.34-12.53,11.6-17.43,2.6-10.1,4.76-21.25,6.9-31.07,1.71-7.86,2.47-15.81,5.5-23.31.98-1.7,4.66-.95,5.07,1.87.51,3.5-3.75,12.07-4.09,16.93-1.22,17.09,4.61,49.4,20.33,58.77,18.28,10.9,40.55,12.51,60.96,7.52,6.21-1.52,11.95-5.26,19.27-5.73,8.74-.55,21.9,2.37,17.93,13.94-3.75,10.95-32.53,14.65-25.52,31.61,14.58,4.06,25.03-24.43,33.79-26.37,5.56-1.23,9.76,1.39,9.33,7.29-.37,5.11-6.09,8.4-8.26,12.81-2.02,4.1-5.25,16.03,1.74,16.74,11.53,1.16,17.96-32.03,29.96-32.13,8.84-.07.43,12.51-.78,17.31-1.42,5.64-1.75,10.05.4,15.66,10.34,1.63,8.98-13.2,10.93-20.32,1.66-6.04,6.65-18.3,15.19-13.56,6.94,3.85-8.66,36.09,10.02,32.76,16.79-2.99,8.53-31.08,20.02-38.08,5.92-3.6,10.46-.6,16.22-.59,12.84,0,8.82-3.51,20.95,3.96,1.55.95,3.96.89,5.14,1.86,2.75,2.27.41,13.56,9.37,7.54,8.62-5.79,4.02-23.23-2.7-28.48-12.02-9.4-29.45-11.09-42.82-15.91-16.82-6.06-16.88-28.99-37.24-36.76-10.28-3.92-18.96-1.85-28.63-3.37-7.23-1.14-7.21-15.78-9.09-21.91-1.99-6.48-7.78-16.62-12.48-21.52-3.92-4.09-11.94-6.69-10.99-13.5,12.26.03,24.82,19.37,28.77,29.72,2.45,6.42,2.22,13.57,5.19,19.81,10.75,1.71,22.61.28,32.58,5.42,2.47,1.27,11.06,7.22,12.87,9.13,8.11,8.6,9.31,21.73,22.23,26.77,8.03,3.14,18.48,4.9,26.82,8.1,8.67-1.31,11.08-11.64,18.54-11.96,1.19,6.6-6.01,11.37-10.99,14.01l.5,1.99c8.61.58,16.1-.73,22.97-6.03,2.2-1.7,6.06-7.58,8.83-6.87l2.59,4.19-5.89,7.69c6.26,2.41,16.1-.48,21.7-3.78,3.25-1.92,7.76-8.79,8.98-9.1,2.02-.51,5.99,3.01,9.3.89v4.01s5-1.01,5-1.01l3.05,5.53,5.96-.53.12,3.94,2.78.12.1,3.95,7.87.14c1.79,5.95,8.86,7.93,13.11,13.38,12.53,16.05,16.03,61.92,6.86,79.82-2.45,4.79-7.93,7.67-8.88,13.13-.16.89-.59,3.84,1.03,3.53.47-2.69,1.8-4.93,3.49-7.02,8.87-10.95,22.73-16.66,29.56-29.44,2.16-4.05.93-9.44,3.92-13.08,7.33-4.5,1.95,15.55,2.05,18.54,4.71-4.63,8.14-15.83,7.75-22.25-.21-3.48-2.86-6.45-2.8-10.19.12-6.69,4.53-14,5.03-19.15.29-2.96-1.47-5.96-.94-9.84.34-2.47,2.24-5.3,2.69-8.33.5-3.4,3.57-25.25,3.26-26.56-.18-.76-1.89-.63-2.03-1.34-.62-3.11,5.58-15.84,6.75-20.12,3.11-11.42,1.05-18.07.36-28.8-.25-3.93.72-11.85-.24-14.79-.42-1.27-2.17-1.36-2.86-2.37-7.05-10.29-10.5-11.1-18.99-18.75-3.48-3.14-5.97-7.21-8.95-10.05-3.64-3.47-18.17-7.2-23.81-8.19-4.27-.75-10.46-.34-14.51-1.49-9.87-2.8-20.47-10.44-31.36-11.68-6.03-.69-1.79,4.53-6.83,3.94-2.13-.25-3.01-2.58-4.79-3.29-8.6-3.43-18.19-3.88-27.18-5.82-3.69,9.1-4.28,4.2-8.21,1.21-8.68-6.61-17.67-8.23-28.35-9.16ZM902.64,83.71c-1.02-.85-7.48-10.36-9.3-8.68.12,3.01-1.97,5.6-2.07,8.54-.27,7.72,13.58,11.71,19.91,10.29l1.72-5.86c-2.87-2.4-7.42-1.93-10.26-4.29ZM951.33,75.03c-7.37-1.1-15.62,5.89-4.99,7.58l4.99-7.58ZM537.32,84.04c-8.36.93-13.74-5.56-20.98-8.01l.9,10.36c6.18,3.38,21.3,9.47,20.08-2.35ZM934.32,77.03c-2.09-.29-1.62-.12-2.23,1.26-1.6,3.65-3.81,9.86-1.81,13.3,4.49,7.75,16.68,5.46,24.04,9.44l.92-5.86c-7.36-4.32-19.57-8.82-20.93-18.14ZM503.34,86.04c-8.3-.02-14.48-5.63-22-8,1.22,4.76-.74,10.9,4.42,13.07,1.74.73,12.33,2.95,13.83,2.7,5.62-.93,2.04-4.34,3.75-7.76ZM926.33,78.03c-2.47-1.85-11.48,4.41-9.99,5.99l8.99,2.01,1-8ZM451.34,82.03l3.04,10.45c6.92,1.41,14.59,10.43,18.03.05l-1.08-2.01-19.99-8.49ZM256.2,83.17c-3.67-1.27-6.18,2.38-9.87,1.87v2.99s11,0,11,0l-1.13-4.86ZM350.32,89.03c-2.66-.26-1.61-.02-1.97,1.49-2.36,9.92-3.22,20.94-6.1,30.92,2.42.56,5.46,3.46,7.55,3.5,1.7.03,12.46-4.21,13.54-5.4,2.02-2.23.6-4.41.09-6.96l2.92-2.06c.03-1.36-16.54-16.87-16.03-21.49ZM444.34,95.03c-7.11,1.1-11.75-2.61-17.38-5.93l-6.49,9.29c.2.99,6.8,5.7,7.91,6.08,6.49,2.25,16.1-2.45,15.96-9.45ZM85.44,120.91c.05-7.79,4.2-10.46-.27-18.22-4.96-8.6-17.7-13.18-27.32-12.65-7.46.41-15.88,2.52-17,11l-1.15.9c-3.13,1.11-8.11-2.95-11.85.1-4.71,3.85.23,8.55-.97,10.97-1.57,3.16-15.31,5.74,1.22,12.74,15.21,6.44,33.61.15,51.61,9.39,17.4,8.94,13.36,8.52,33.88,12.12,18.44,3.23,29.85,21.36,51.28,22.78,2.98.2,5.27-1.08,6.88-1.04.65.02,9.25,4.8,11.23,5.86,9.14,4.9,12.75,11.53,20.33,17.67,11.57,9.36,15.53,9.56,28.71,2.68,3.06-1.6,6.8-7.1,10.19-2.57,1.07,4.45-.79,2.75-2.74,3.97-6.77,4.26-13.48,10.54-22.04,9.52-3.86,16.55-14.63,23.67-29.12,30.37-17.98,8.32-37.66,14.54-55.97,22.05-.72.29-3.1.41-1.5,1.48,18.28-1.13,36.74-6.36,55-8,8.31-.75,29.48.42,35.77-2.23.55-.23,7.65-7.28,8.65-8.35,1.7-1.81,1.68-4.27,4.56-6.44,1.92-1.46,8.97-3.81,9.29-4.21.95-1.18,1.21-6.21,4.73-9.77,2.13-2.16,10.39-8.42,12.55-5.57,3.95,5.22-9.59,7.35-10.05,12.55l17.78.78,8.21-24.77c-4.07-.71-8.67-.68-12.56-1.94-16.95-5.5-9.22-33.4,7.84-29.83,3.91.82,7.71,5.52,10.66,6.35,1.3.37,1.6.76,2.59-.58,2.27-19.94,8.05-39.78,16.47-58l-16.99,1c2.57,6.06,7.05,10.74,5.99,18-7.69,1.61-6-6.33-9.98-11.24-6.4-7.9-18.5-10.01-28.25-8.5-5.03.78-10.54,5.27-15.98,7.01-16.34,5.23-22.18,2.91-37.55-.01-7.15-1.36-13.96-1.5-21.23-1.26,3.56,8.86,5.45,17.43,1.11,26.4-10.18,2.43-4.56-4.32-4.07-8.88.77-7.09-4.05-21.87-13.04-20.52.41,4.02-1.16,21.64-3.95,23.56-1.89,1.31-5.52-.1-5.9-2.2-.13-.71,3.44-9.08,3.73-11.96,1.25-11.99-2.36-13.24-12.88-16.39-.45,3.95,2.38,6.83,2.9,10.58.8,5.75-.41,20.54-7.67,11.8,2.79-8.4.85-15.28-3.42-22.71-1.13-1.96-6.88-9.71-6.86-3.16.03,6.87,2.78,15.08-2.54,21.45-7.26-.5-2.95-6.42-2.53-10.57.64-6.31-.18-12.31-5.4-16.39-2.95-1.19-.54,5.47-.49,6.5.13,2.96.31,16.41-2.58,17.41-6.86,2.38-2.77-5.91-2.51-8.54.56-5.76-1.32-18.26-8.9-17.37,3.3,4.13,3.74,22.89-1.52,23.99-4.56.95-1.44-9.56-1.4-11.49.09-4.71-3.21-12.58-7.59-14.49-2.25-.98-1.13,1.23-1.06,2.05.55,5.69,3.17,20.94-6.32,16.83ZM996.07,106.28c-1.41-1.49-11.77-3.97-15.43-6.06-4.24-2.42-7.47-6.27-11.3-9.19-3.27,7.96,2.66,14.27,8.25,19.24l19.74,1.75c.03-1.75-.02-4.42-1.26-5.74ZM404.15,109.84c.42-.49,2.58-7.77,1.76-8.88-.44-.61-11.67-3.58-14.26-4.75-3.22-1.45-4.98-4.32-8.31-4.18-.78,6.14-4.08,11.23-7.01,16.48.32,1.63,15.46,4.27,17.7,4.18,1.14-.05,9.77-2.45,10.12-2.85ZM201.34,121.01c11.24,4.14,23.79,3.71,34.96-.5,14.03-5.29-7.23-12.27-13.36-10.53-.63.18-4.8,11.78-7.66,1.09-3.29-.99-16.36,6.51-13.94,9.95ZM1031.33,131.02c.67-.68-5.65-8.11-6.48-9.01-1.95-2.12-4.12-4.35-6.5-5.99-1.67,7.73,4.73,17.61,12.99,14.99ZM344.04,129.34c-.52-.62-3.28-1.78-3.7-1.3-1.47,12.21-5.61,23.76-8.97,35.53l-10.89,24.14c-.84,2.79,10.09,3.16,10.83,2.85.99-.41,14.68-13.85,15.1-14.95.93-2.43.48-4.91,1.14-6.85.5-1.46,2.31-2.24,2.54-3.34.39-1.87-1.94-5.94-1.54-7.78.27-1.26,2.31-1.98,2.55-3.23.08-.44.26-7.94.2-8.77-.2-3.12-5.22-13.83-7.27-16.31ZM76.33,141.03c-1.06-2.04-4.66-3.03-6.74-3.76-9.05-3.15-25.84-4.04-35.74-4.28-2.25-.05-1.31-.19-1.06,1.06.27,1.34.53,4.4.99,5.03.27.38,5.59,1.94,6.06,1.94h36.5ZM34.34,145.03l-9.95-1.97c-2.36,3.14.8,15.67,3.46,16.95l6.03-11.95.46-3.03ZM1048.33,170.03l8.53.04c1.05-1.72-.6-3.46-.35-5.33.18-1.3,1.69-2.6,1.82-4.29.24-3.02-5.72-14.28-10-14.43v24ZM84.33,149.53c-.71,2.3,0,12.55,0,16,0,.19,1.61,1.78,1.99,1.5,1.28-7.02,7.52-10.87,11.02-16.49-2.52-1.5-11.67-5.34-13.01-1.01ZM139.19,168.9c1.68-2.95-4.92-6.12-7.3-6.86-2.12.47-4.32,11.63-3.55,13.98l10.85-7.12ZM1067.15,176.23c-.83-.48-1.91-.11-2.81-.21l-1.69,6.09-6.31-.08c1.1,6.61,3,13.65,1.93,20.43-.93,5.91-8.22,12.55-8.9,17.13-.97,6.5,3.98,8.54,3.87,13.82-.03,1.75-1.96,10.81-2.67,12.35-1.38,2.99-5.5,3.79-6.11,5.97-.89,3.18,2.32,6.77,2.81,9.86,2.09,13.38-7.76,23.13-7.97,35.99-.07,4.15,1.42,7.7.9,12.82-1.32,12.99-9.36,16.54-20.7,19.78.86,7.94-3.5,12.67-9.15,17.35-6.95,5.75-14.51,6.85-21.05,12.95-6.85,6.38-16.51,16.65-26.51,18.51-3.42.63-8.07-1.49-9.81-.9-1.6.54-1.56,4.01-4.26,5.81-3.75,2.5-11,3.02-15.35,4.65-5.45,2.04-11.33,6.36-16.03,7.97-9.32,3.2-28.96,4.52-39.24,5.77-7.29.88-13.88,6.4-22.14,5.46-2.23-.25-3.25-2.99-5.6-2.73l-.93,3.57c-5.22,1.01-12.83,1.36-17.65,3.36-2.79,1.15-4.25,4.33-6.14,4.89-5.8,1.73-12.42-3.98-21.99.02-6.24,2.61-3.2,8.73-8.02,10.02-2.64.7-12.09-3.81-18.49-2.56-6.47,1.25-3.43,3.9-6.38,7.67-4.3-.43-6.7-3.97-11.14-4.72-6.29-1.06-16.83-2.31-14.26,6.76-4.54,1.13-5.56-3.31-8.76-4.74-8.5-3.81-15.85,1.46-23.84,2.63-3.01.44-7.37-.54-9.68.09-1.13.31-2.57,5.38-5.06,4.93-3.39-3.09-10.54-7.52-15.11-7.74-.7-.03-6.12.8-6.36,1.01-.6.51-.18,4.02-2.86,4.67-12.87-5.46-22.98,3.62-35.68.21l-3.21,4.92c-2.08.61-5.46-3.16-7.88-4.03-9.39-3.37-21.13,4.82-30.9,1.97l-3.18,5.08c-5.65-3.07-4.22-7.17-11.97-8-11.48-1.23-18.41,7.12-29.96,4.95-2.47-.46-4.53-3.16-7.27-3.73-9.2-1.91-15.58,2.28-23.74,2.82s-17.76-3.05-24.79-1.81c-3.55.62-8.18,3.44-12.43,3.44-2.7,0-5.7-2.44-8.61-1.73-1.14.28-.78,2.9-3.2,3.14-2.89.29-4.67-3.76-8.43-4.66-2.69-.64-19.44-.32-20.94.69-.9.6-.44,5.97-3.62,5.93-1.77-.02-3.67-3.45-7.06-4-6.63-1.07-12.63,2.19-18.87.04l-3.17,8.96-3.96-1.01c-.08-10.36-8.72-6.03-14.91-6.01-4.66.02-9.41.4-13.96-.93l-1.41,1.55c-.71,13.35-5.09,1.76-10.89.57-5.46-1.12-9.48,1.03-13.76.84-2.82-.12-4.65-2.39-7.5-2.07-1.1,1.16,3.66,9.82-3.51,10.07-2.84.1-2.37-6.15-3.62-7.95-8.42-1.83-16.42,1.02-24.88.87.02,2.37.73,5.74-2.51,6.08-3.73.33-3.31-4.97-9.43-5.62-6.86-.73-17.04,3.85-25.05.55l-.15,7.84-3.24,1.04c-6.26-11.04-19.01-3.36-29.14-3.83-4.87-.23-10.36-2.99-14.98-3.04-11.58-.13-28.07,7.69-41.12,8.87-6.9.63-33.64-1.59-36.88,5.12-1.32,2.74-.68,7.4,1.55,9.46,8.04,7.44,41.54,3.62,53.43,4.57,13.52,1.08,29.37,5.99,43.02,6.07,14.37.08,30.87-5.1,45.72-3.79,11.35,1.01,23.98,5.66,35.41,6.58,19.65,1.58,39.19-7.07,58.84-7.92,18.49-.8,37.46,3.99,56.03,4.12,18.28.13,37.7-5.02,56.06-4.13,14.89.73,31.98,5.2,46.95,5.05,13.62-.14,27.85-3.83,42.05-3.05,9.03.49,19.94,3.21,28.95,3.05,19.47-.36,41.12-9.41,60.98-7.98,7.39.53,15.49,3.45,23.03,3.97,22.2,1.53,45.9-8.13,68.15-7.6,18.97.45,36.73,5.88,54.94,8.52s29.11-2.28,45.92-3.88c19.25-1.84,37.65,1.55,56.93-1.07,4.26-.58,8,1.17,12,1.08,6.56-.14,39.73-7.8,45.46-10.62,5.98-2.95,10.9-8.07,17.58-10.42,7.95-2.8,15.19-1.47,23.2-4.8,15.3-6.35,18.01-15.45,27.34-26.66,7.44-8.93,18.21-18.14,23.51-28.49,7.19-14.04,4.73-29.02,7.78-44.22,2.76-13.77,10.42-30.32,9.71-44.36-.4-8.03-3.64-17.31-4.55-25.44-1.74-15.47.56-32.1-3.75-47.26-1.31-4.62-4.42-7.94-5.48-13.52-1.79-9.39-.44-18.25-3.74-28.26-.63-1.91-6.95-14.34-7.7-14.78ZM142.34,211.02c8.1-1.94,17.99-1.03,25.35-5.14,9.93-5.54,6.22-11.08,9.34-19.66,1.45-3.99,6.35-5.68-.23-8.15-1.46-.55-4.02-1.35-5.45-.6-2.16,1.13-7.37,11.59-9.63,14.45-4.84,6.14-12.23,11.64-18.11,16.82-.68.6-1.92-.05-1.27,2.28ZM267.05,177.22c-6.08,1.84-10.07,14.97-3,18.59,3.62,1.86,7.12.65,10.55,1.45,9.06,2.11,20.93,5.35,29.73,8.27s27.7,15.39,31.55.51c3.17-12.27-17.02-11.19-24.8-13.27-7.59-2.02-19.31-5.57-26.43-8.57-5.18-2.18-12.45-8.55-17.61-6.99ZM191.2,190.88c1.58-2.69-4.49-8.7-6.87-7.43-3.6,1.91-4.44,10.86-4.99,14.58l11.86-7.14ZM1052.33,186.02c-2.6-.2-1.67-.15-1.97,1.51-.5,2.82-3.98,18.46-3.02,19.49,9.61.3,5.08-14.85,4.99-21ZM297.13,209.24l-14.77-3.18-6.04,23.97,22.01-2-1.2-18.79ZM82.31,216.04l-1.99.5,2.03,13.48c1.86.5,10.7-.78,8.5-3.99-3.46-2.58-7.1-5.76-8.54-9.98ZM143.12,217.23c-3.99-1.96-21.06,6.93-25.62,8.47-5.96,2.02-31.62,8.01-33.51,12.56-.91,2.18-1.19,6.66-.17,8.77,1.5,3.09,23.72,12.7,25.5,10.99-2.78-6.66-6.37-14-4.99-21.49,1.48-8,11.32,4.99,13.49,6.5,7.73,5.39,18.27,4.25,26.93,4.92l46.57-18.94-8.44-.03c-3.13-2.28-5-1.33-8.55-.96l1.99-4.99c-5.65,3.36-10.21-2.5-14.58-3-2.25-.26-4.19,1.22-5.79,1.05-.71-.08-.2-2.03-2.08-2.17-3.55-.27-6.28,2.23-9.85.11-.59-.35-.64-1.67-.9-1.79ZM1044.45,238.9c6.22-1.33,3.27-11.73-2.11-12.86l-1.08,10.45,3.19,2.42ZM989.33,278.02c-2.65-9.96-5.65-22.62-14.66-28.82-12.1-8.32-21.42-5.01-34.56-7.44-4.26-.79-9.25-3.59-13.4-3.64-3.46-.04-7.47,2.7-10.97,2.82-5.04.17-12.02-3.08-15.87-2.97s-8.44,3.21-12.53,3.07l6.8,8.68c2.99,4.71,3.88,10.19,3.1,15.72-.68,4.85-4.28,7.79-1.85,13.53l93.94-.95ZM670.33,257.03c-13.84-1.14-27.37-5.67-38.55-14.05-10.33,5-19.65,8.7-31.5,6.6-4.04-.71-8.32-4.43-10.42-4.46-2.4-.03-6.19,2.42-9.11,2.82-12.05,1.63-14.52-2.61-23.01-3.9-2.76-.42-6.53,1.08-9.92,1.06s-6.9-1.53-10.49-1.08c-.19,5.03-.69,36.8,1.01,38.01,3.01-.64,5.21-1.88,8.46-2.05,17.11-.93,40.77,2.43,57.08.11,4.01-.57,4.33-4,7.88.03l58.57-.08v-23ZM110.83,244.03v1c.65-.33.65-.67,0-1ZM531.33,244.03c-8.05,3.12-14.25,6.2-23.25,4.76-2.52-.4-8.83-3.77-10.07-3.56-4.6.8-10.34,5.75-18.18,5.87-6.07.09-11.74-3.89-16.1-4.05-3.44-.12-8.93,3.92-13.9,4.05-6.1.16-11.36-3.71-16.12-4.05-3.91-.28-7.79,2.52-11.88,2.97-4.73.53-9.58.17-13.86-1.86-10.08,10.32-21.33,18.8-33.73,26.27l-.93,13.58,159.35-1.16,1.67-1.37c-4.94-12.61-2.28-27.9-3.01-41.47ZM130.33,253.04c-7.18.06-12.67-4.64-18.99-7.01-.66,3.03,2.9,11.07,5.7,11.86l13.29-4.86ZM44.33,287.02c-1.01-8.43,2.03-16.68.55-25.04-12.55-5.35-25.08-11.24-38.54-13.96l-1.97,26.97,39.96,12.03ZM233.33,254.01c-2.88-12.94-14.11,5.7-11.99,8.01,5.35-.3,7.19-6.93,11.99-8.01ZM706.33,280.03c3.06-11.74,15.48-14.21,22.92-20.58,5.54-4.75,5.59-9.67-2.36-10.48-10.95-1.11-19.19,3.84-29.32,5.8-6.86,1.33-15.2,1.79-22.24,2.26l1,23h30ZM251.33,254.04c-4.82,1.04-10.09.82-14.69,2.8-2.31,1-10.87,8.19-11.79,10.2-1.82,3.96,2.04,17.52.47,22.99h5c-.07-2,.12-3.94.65-5.86,3.16-11.61,10.84-22.97,20.36-30.13ZM95.33,265.03c.79.73,0,18.55,0,21.5,0,.28,1.03,2.33,1.69,2.54,6.6.14,13.26-.28,19.85-.08,28.21.88,57.48,1.48,85.91,1.09,5.66-.08,10.91-1.39,16.55-1.05-.68-3.69,1.16-13.4-.54-16.02-.45-.69-2.23-.66-2.49-1.68-.98-3.75.56-10.33,1.02-14.3-9.2.58-19.39.25-28.49,1-30.48,2.54-47.96,10.42-79.96,5.94-4.95-.69-11.39.6-16.55.06-.32,1.96,2.53.56,2.99.99ZM1034.34,278.02c7.86-1.59,9.27-9.13,6.98-15.99-4.36,3.72-5.18,10.78-6.98,15.99ZM90.33,264.03h-38.5c-1.02.64-1.28,1.38-1.49,2.51-.84,4.63-1.82,14.43-1.83,19.03,0,.9.5,3.35,1.46,3.54,6.51-2.5,12.74-.14,18.81-.04,6.88.11,13.66-.79,20.5-.09l1.04-24.96ZM868.2,267.15c-6.01-4.06-11.41-1.02-17.37-1.03-5.04,0-9.43-3.08-14.02.88-4.18,3.61-.06,8.27-2.48,13.02,5.95-.24,7.53-6.63,12.8-8.68,7.17-2.8,13.87,1.7,21.14-1.38l-.08-2.81ZM750.33,267.03c-4.5-1.42-14.89,12.03-12.99,13.99,2.07-.02,4.95-.55,6.46-2.03.77-.75,7.24-11.25,6.53-11.96ZM918.33,284.03h-24.5c-3.01,2.56-3.22,6.73-5.85,9.65-3,3.34-11.54,9.46-16.16,9.45-9.55-.02-3.25-6.06-1.81-9.92,1.04-2.79,2.41-6.15,2.28-9.14-1.05-1.22-26.04-1.51-29.51-1.12-1.34.15-6.12,5.68-10.48,3.47-3.52,9.45-10.12,17.72-10.96,28.1-.34,4.28,3.01,12.99-3.44,11.48-5.5-1.29-12.05-10.34-13.33-15.72-.51-2.14.15-4.57-.43-6.57-.49-1.7-3.22-2.9-4.14-5.86-2.6-8.33,1.31-16.5,1.37-24.31.01-1.51.64-2.94-1.52-2.51-7.96,8.44-4.75,22.72-10.67,31.38-.73,1.07-2.6,1.41-2.85,2.33-1.56,5.77,1.81,15.44,3,21.27-8.68,2.73-17.51-10.83-18.03-18.51-.19-2.75.88-4.91.83-6.98-.11-5.08-1.83-10.03.2-15.49l-3.35-.04-8.62,14.56c-.77,6.63.59,13.56.78,19.98.08,2.7-2.29,6.39.14,9.08l157.06-2.59v-41.99ZM235.34,284.02c1.58,1.71,7.94-7.64,8.9-8.64l-2.54-3.28c-3.04-.54-7.01,11.23-6.36,11.93ZM261.33,273.04c-4.07,1.08-7.46,2.04-9.65,5.84-.74,1.28-5.18,12.32-1.84,12.14l6.68-12.29,4.81-5.68ZM873.33,275.03c-3.99-.14-7.52,1.86-11.47,2.04-5.35.24-11.72-3.31-15.52,1.94,8.75-1.96,17.33.91,26.02-.47l.97-3.52ZM344.33,289.03h23l-.51-10.01c-2.32-.17-16.05,6.25-19.25,7.75-1.18.56-2.98.45-3.24,2.26ZM889.33,279.03l-11.56,1.93c.17,5.35-2.97,9.76-2.43,15.06,7.79-2.4,11.5-9.83,13.99-16.99ZM44.33,291.03c-5.68.13-37.45-13.53-40-11,1.11,6.35-1.08,13.66-1.08,19.5,0,2.34,1.08,4.54,1.12,6.96.11,5.51-.17,11.04-.03,16.54l3.98-1,1.76,4.02,34.25,9.99v-45ZM245.33,282.03c-1.19-1.37-6.78,6.31-5.99,6.99h6s-.01-6.99-.01-6.99ZM990.33,282.03l-66.98,2.01-.87,40.85c7.21,2.7,14.98.2,22.31.1,8.74-.12,32.48,1.64,38.89-1.11,5.5-2.36,6.89-5.85,7.53-11.47,1.1-9.7-.22-20.67-.88-30.37ZM463.33,292.03v38.5c0,.33-1.99,2.13-.5,2.51,17.7-.46,35.32-.79,53.04-.96,20.79-.2,42.45.49,64.01,0,8.78-.2,17.59-1.53,26.46-1.04l-.97-44.34c-.69-3.1-20.65-.65-24.49-.64-6.68.01-13.42.17-20.09.02-11.21-.26-18.44-4.7-27.98,4.94l-69.48,1.02ZM611.33,286.03v45l144-2v-26l-6.21,10.29c-2.36,5.4-2.83,19.97-10.62,9.03-4.58-6.42-5.52-16.21-2.94-23.6.69-1.98,2.98-2.6,3.56-4.44.7-2.23.06-5.76,1.2-8.29-2.96.14-6.16-.49-9.05.44-4.64,1.48-12.9,11.36-15.12,15.88-2.48,5.03-2.43,17.82-9.38,13.73-8.4-4.94-4.85-22.33-2.45-30.04h-93ZM275.83,287.03v1c.65-.33.65-.67,0-1ZM275.33,289.03c-.96-.95-9.54,5.25-10.65,6.34-.88.86-2.78,3.32-1.92,4.68,10.55,6.71,10.5-3.25,12.56-11.02ZM457.33,292.03l-120.57,1.07c-5.5-2.75-7.99-1.07-12.89-1.03-12.21.1-20.01-4.39-20.33,10.46-.16,7.17.39,15.83.78,23.01.21,3.82-.12,7.69,0,11.49,21.91.17,43.63-.46,65.49-1.02,1.9-.05,3.84-.98,5.97-1.03,27.5-.67,55.12.14,82.54-1.97.38-1.08-1-2.18-1-2.49v-38.5ZM258.18,294.16c-7.52-6.13-8.94,7.35-9.85,12.86,3.45.18,4.01-3.89,5.56-5.93,1.36-1.8,5.69-4.52,4.29-6.93ZM714.33,294.04c-1.89.22-6.16-3.29-7.54-1.05-1.01,1.64-1.15,12.96,1.05,14.03l6.49-12.98ZM151.33,294.03l-35.54.04c-17.79-.38-43.64-3.43-60.69-.78-8.22,1.28-5.54,2.24-5.79,7.23-.38,7.74.06,13.6.1,20.99.03,4.54-1.02,9.85-1.07,14.51h103s0-41.99,0-41.99ZM246.33,294.03h-90l2.01,40.24,1.19,1.09,138.8,1.67v-32c-6.21,2.48-9.36,6.91-11.54,12.96-1.69,4.72-1.91,17.88-9.18,11.74-5.42-4.57-7.41-16.07-5.29-22.7-5.61,2.61-9.81-1.74-15.27-1.86l-6.9,9.67c-10.2,2.69-2.86-19.84-3.83-20.81ZM748.33,304.04l-7.99-4.01c-1.01,5.51-2.49,12.22,1.49,16.98l6.5-12.97ZM819.33,304.04l-10,.99c0,1.74-.24,3.54.25,5.26.54,1.88,5.73,9.45,7.75,7.74-1.67-4.74,1.39-9.3,2-13.99ZM782.34,305.03h-6s3.01,11,3.01,11c2.62.22,1.65.11,1.95-1.51.26-1.43,1.37-9.14,1.04-9.48ZM278.34,323.03c2.37,1.81,5.19-8.6,4.92-10.37l-6.93-2.62c-.59,4.71.58,8.63,2.01,12.99ZM997.34,349.02c12.44-2.41,17.97-14.18,17.98-25.99-3.17,5.05-7.73,6.27-11.9,9.59-7.36,5.85-3.57,4.9-4.09,10.88-.15,1.76-2.63,3.25-1.99,5.53ZM44.33,386.03l-.49-44c-1-2.11-7.73-3.87-10.29-4.71-9.77-3.21-20.28-5.52-30.21-8.29l1.49,45.01c1.08,1.77,38.04,13.46,39.5,11.99ZM838.33,332.03v39c2.75-.5,4.82-2.13,7.05.46,3.41,3.94-5.54,3.49-5.04,7.54,7.68,4.15,28.89-17.99,33.52-9.02,2.63,5.09-8.88,4.81-10.53,9.01,5.38-1.46,19.74,2.65,23.06-.44,1.43-1.33,2.13-4.69,3.51-6.49,3.43-4.5,19.28-17.04,17.98-5.01-5.75,2.58-11.51,5.47-13.55,11.95h16.5c.71,0,5.15-3.04,5.96-4.04,3.19-3.92,4.06-11.67,7.54-16.46,1.32-1.81,8.86-9.21,10.65-9.38,6.38,3.8.64,5.61-1.2,7.81-5.25,6.29-10.28,11.47-11.45,20.06.96,1,19.04-8.62,20.92-10.57,5.93-6.12,7.51-20.37,12.22-26.78,1.52-2.06,8.56-7.39,10.38-4.69,2.46,3.66-3.54,6-5.72,9.35-3.88,5.93-4.88,14.9-8.82,21.18,3.07.31,9.31-4.34,11.5-6.5,2.07-2.06,8.44-12.47,9.71-15.29,1.76-3.92,2.48-9.49,3.8-13.69l-138,1.99ZM831.19,332.17l-155.86,2.86,1,44.01c29.17-.18,58.37.2,87.55.04,12.83-.07,29.88,1.19,42.01,0,4.24-.41,5.72-2.67,7.12-2.89,2.42-.37,13.47,7.58,17.75-.24,2.42-4.42,2.1-31.91,1.63-38.46-.13-1.85-.32-3.66-1.19-5.32ZM669.19,335.17l-130.86,1.86,1,43.01,130.35-1.15,1.54-2.28-2.03-41.43ZM533.33,378.53v-36c0-.96-.81-3.04-.42-4.53l-25.25-1.6-134.34,3.62,1,42.01,156.5-2.01,2.5-1.5ZM89.33,340.03h-36.5c-.54,0-2.31,1.12-3.23,1.26-1.69,14.27-1.65,29.26-.83,43.8l41.56.94v-43.5c0-.33-1.32-1.52-1-2.5ZM96.33,341.03v42.5c0,.55,2.66,2.11,3.62,2.21,4.32.48,13.47-.9,18.93-.76,6.6.17,13.27,1,19.9,1.08l79.97-1.97c3.66-14.29-.98-29.36.58-44.06l-123.01,1.01ZM367.33,382.03v-40.5l-142.06.08,1.06,42.43,141.01-2ZM977.32,347.03c-1.86-.44-1.93.65-2.82,1.66-1.89,2.15-6.47,11.45-7.6,14.43-.78,2.06.77,5.36-2.56,7.9,2.28,2.68,14.07-4.7,15.26-7.22,2.21-4.69-1.24-11.97-2.27-16.76ZM946.33,372.03l-10.55,5.01c-.6,10.75,12.34,3.03,10.55-5.01ZM43.33,443.02l.57-51-39.56-11.99,2.07,50.42,36.92,12.57ZM754.34,383.03l-142.01.99c.15,3.12-.27,6.33.05,9.45.63,6.24.33,3.44-.11,9-.32,4.05.34,8.46.06,12.55,17.13-.74,24.87-21.14,42-20,1.03,6.06-2.96,4.2-6.37,6.13-6.27,3.56-10.22,9.48-11.37,16.63-.17,1.04-1.39,5.99,1.21,5.22,3.04-.9,11.45-4.87,14.45-6.56,9.33-5.28,27.96-27.91,39.42-24.26,7.79,2.48-6.38,6.59-7.4,7.28-1.07.73-4.59,4.49-5.34,5.66-.51.8-3.14,5.79-.12,4.89,2.84-.85,9.61-6.2,13.14-7.87,9.28-4.39,19.02-6.08,27.05-12.97,8.6,3.76-2.09,7.41-5.01,11.12-1.55,1.97-5.8,10.07-6.46,12.43-1.42,5.07,6.37-1.32,8.84-2.17,10.52-3.61,18.3-3.65,27.02-12.98,3.49-3.74,4.63-10.58,10.25-11.54l.7-3ZM801.33,383.03h-39.5c-3.82,6.16,1.02,14.83-.49,22,.82.9,9.46-5.08,10.51-5.98,3.18-2.76,8.52-10.56,11.54-11.55,3.21-1.05,4.79,2.33,2.41,5.5-1.37,1.83-3.85,2.62-5.49,4.51s-5.59,8.08-4.47,10.53c12.48-3.08,19.16-15,25.49-25.01ZM822.33,383.03c-14.74-3.6-21.48,11.61-20.99,23.99,3.65,3.79,18.3-18.04,19.8-20.69.63-1.11,1.52-1.81,1.19-3.3ZM841.33,383.03c-9.16-2.02-13.09,4.71-12.99,12.99l10.52-8.97,2.47-4.02ZM878.33,384.04c-11.89-.44-30.85-7.06-26.99,11.99,7.68-6.79,19.61-4.75,26.99-11.99ZM606.34,384.02l-143.01,1c.66,5.73-2.13,12.59,2.95,16.63-3.36,4.09-3.32,7.14-2.94,12.37l21.27-12.22c2.8-.79,12.07-3.94,10.59,1.57-.92,3.46-10.65,3.4-13.74,8.28-1.06,1.67-3.85,10.8-4.12,12.9-.22,1.67-.09,1.58,1.49,1.49,13.9-.73,26.46-22.81,41.1-25.92,2.53-.54,14.82-2.24,15.39.41.83,3.83-11.52,4.55-14.45,7.53-1.26,1.29-4.86,8.77-5.3,10.7-.38,1.64-1.27,4.54,1.22,4.24,3.53-.43,15.44-6.09,18.84-8.18,6.64-4.07,10.78-10.45,17.66-14.34s12.53-4.17,19.39-6.32c7.42,5.97-2.37,5.74-6.69,8.02-6.91,3.64-10.21,11.81-10.67,19.34-.23,3.83,8.02-2.17,10.05-2.97,17.03-6.74,18.38-6.37,33.05-17.95,1.74-1.37,6.19-3.25,6.93-4.07,2.18-2.44.47-9.12.99-12.52ZM913.33,384.03l-6.96,1.03c-.7,3.11.87,5.25,2.08,7.89,5.62-.28,5.2-4.39,4.88-8.92ZM458.34,400.02c-2.09-4.99,1.61-9.62-1.48-14.02l-2.02-.98-150.51,2,1.01,30c8.97-2.57,15.99-10.95,26-9.99,1.07,6.09-6.09,6.07-10.04,9.46-1,.86-6.83,7.78-5.96,8.53,8.58-1.38,14.96-8.49,23.3-12.19,2.47-1.1,21.02-7.98,22.19-7.84,2.4.28,3.13,1.98,2.03,4.07-.85,1.6-7.7,3.53-10.57,6.43-2.39,2.41-4.56,6.12-4.96,9.53,8.52-2.73,18.87-5.05,26.98-8.51,3.12-1.33,13.19-8.35,14.55-8.52,10.4-1.27-6.03,11.44-6.52,12.55s.08,1.94,1.36,1.37c14.82-4.78,29.89-9.58,43.16-17.9,7.37,3.25-6.08,9.7-7.51,14.54s7.94-3.95,8.63-4.38c3.42-2.08,8.35-3.9,12.05-5.95,5.66-3.13,11-9,18.31-8.2ZM299.33,387.03l-140.01,2.99,1.44,61.07c15.69,2.8,33.03-.11,48.33-4.8,8.11-2.48,9.22-3.26,17.51-4.48,22.13-3.24,31.37-14.49,47.81-26.21,2.32-1.65,11.41-8.67,13.46-5.63,2.81,4.16-7.94,10.03-7.54,15.04,6.73.74,12.71-.99,18.99-2.99v-35ZM846.33,387.03c-1.61-.04-7.08,6.12-7.48,7.01-2.32,5.14.14,11.65,6.32,9.82.15-.72,1.16-1.97,1.16-2.33v-14.5ZM884.33,388.03l-13.85,6.14-.14,3.85,14-.99v-9ZM48.33,392.03v54.5c0,.62,1.36,2.49,1.51,3.49l1.97,1.03c32.04.61,64.02-.66,96.06-.06,2.03.04,3.88.75,5.84,1.12,3.14-2.94.73-6.84.72-9.68-.05-14.51,1.62-35.12-.05-48.93-.13-1.1.05-2.23-.98-3.02-1.23-.86-9.35-.56-11.6-.48-23.13.79-46.63.13-69.92,1.08-7.82.32-15.95-1.02-23.54.96ZM746.34,412.02c11.5-.8,8.7-11.42,8.98-20-5.21,2.6-5.41,7.46-7.07,12.23-.24.7-1.72.74-1.89,1.48-.43,1.9.17,4.29-.03,6.29ZM823.33,393.03c-2.31-.59-1.65.47-2.28,1.26-4.25,5.32-1.87,9.61-3.3,15.69l1.12,2.02c6.61.48,3.27-2.51,3.49-5.43.14-1.87,1.81-3.23,1.95-5.09.17-2.35-1.76-5.66-.98-8.45ZM796.33,401.03c-4.22.31-5.22,4.89-6.99,7.5-.89,1.32-2.58,2.07-3.44,3.56-1.25,2.16-1.04,5.75-3.57,7.92l11.99,2.01c.73-7.11,3.08-13.35,2-20.99ZM706.33,402.03c-.61-.61-15.31,5.9-15.97,6.52-.42.4-5.67,9.52-5.77,10.09s.73,4.93.95,5.19l11.79,5.19c2.06-9.54,4.64-18.26,9.01-26.99ZM607.33,403.03c-2.71-3.05-14.08,16.81-12.99,17.99l12.51-4.98.48-13.01ZM458.33,406.03c-5.54-1-16.19,16.8-13.99,18.99l13.51-5.98.48-13.01ZM669.34,428.03c-1.56-7.17,2.19-13.65,1.99-20.99l-10.54,10.03c-.92,1.43.52,3.15.31,4.35-.41,2.39-7.22,4.92,1,6.32,2.42.41,4.81.37,7.24.29ZM741.33,407.03c-1.81.87-12.36,5.63-12.78,6.2-.54.73.02,2.58-.73,3.78-.51.8-2.44.77-2.52,1.6-.58,6.04,4.01,3.84,7.46,4.49,2.59.49,4.84,2.07,7.57,1.92l1-17.99ZM549.33,432.02c-.17-8.17,1.12-16.26,3.52-23.97-2.84.91-13.97,10.7-14.27,12.59-.18,1.1.97,2.59.65,3.73-.33,1.21-4.42,2.86-4.89,5.16l14.99,2.49ZM768.33,408.03l-8.84,3.15-1.13,11.82,6.97,1.03,3-16ZM514.33,409.04c-8.75,2.31-11.6,12.96-19.99,15.51l2.04,2.04-1.05,5.44,11.86-.13c1.9-7.83,2.66-15.94,7.14-22.85ZM436.31,436.03c.54-8.92,4.39-16.61,7.01-25-8.25,2.95-12.24,8.24-17.34,14.65-2.73,3.43-5.18,2.01-2.61,9.31,4.87-1.07,8.27-.47,12.94,1.04ZM474.33,414.03c-1.05-1.09-13.37,9.23-14.09,10.46-1.45,2.48.32,4.88-.92,7.53l9.97,1.98,5.03-19.97ZM631.33,414.03l-15.01,6.48-4.99,10.5c5.98-.8,12.07-1.96,17.99.02l2.01-17ZM590.33,415.04c-.8-.71-8.33,3.79-9.01,4.51-1.02,1.09-.79,3.03-1.12,3.33-.9.83-4.76-.54-5.73.31-.23.2-1.76,4.84-2.14,5.83,5.68.81,10.38.61,15.99,3.01l2-16.99ZM344.33,417.03c-.68-.71-16.03,7.01-17.1,8.44-1.73,2.32.13,3.42-.01,5.11-.18,2.09-3.25,5.09-1.89,8.45l12.07-.44,6.93-21.56ZM413.33,417.03c-3.53,1.41-7.49,2.05-10.98,3.51-1.53.64-10.22,5.11-10.75,5.75-1.81,2.18-.28,5.34-.57,7.09-.21,1.32-2.26,1.87-1.7,3.64,6.15-.91,10.97-.43,16.97.99l7.02-20.98ZM305.33,442.03l5.52-20.98c-6.63,4.71-14.03,9.45-22.51,8.98,1.93,5.5-1.05,7.13-1.99,11.99,6.88-2.81,12.05-1.49,18.99,0ZM375.33,422.04l-13.94,4.08.79,4.32-4.69,2.75-.16,4.85,13,2,5-18ZM273.83,423.03v1c.65-.33.65-.67,0-1ZM273.33,425.03c-.58-.67-14.11,9.24-14.56,10-.79,1.32,2.04,6.38-2.44,8.98,3.03-1.13,11.04,2.32,12.56.03.74-1.13-.62-2.78-.34-4.26.45-2.36,6.54-12.71,4.78-14.75Z"/>
      <path class="cls-4" d="M867.34,90.02c10.68.92,19.66,2.54,28.35,9.16,3.93,2.99,4.52,7.89,8.21-1.21,8.99,1.94,18.58,2.39,27.18,5.82,1.78.71,2.66,3.04,4.79,3.29,5.04.59.8-4.62,6.83-3.94,10.89,1.24,21.48,8.88,31.36,11.68,4.05,1.15,10.24.74,14.51,1.49,5.64.99,20.17,4.72,23.81,8.19,2.98,2.84,5.46,6.91,8.95,10.05,8.49,7.65,11.94,8.46,18.99,18.75.69,1.01,2.45,1.1,2.86,2.37.96,2.93-.01,10.86.24,14.79.69,10.73,2.75,17.39-.36,28.8-1.17,4.28-7.36,17.01-6.75,20.12.14.71,1.85.59,2.03,1.34.31,1.31-2.76,23.16-3.26,26.56-.44,3.03-2.35,5.86-2.69,8.33-.53,3.88,1.23,6.88.94,9.84-.5,5.15-4.92,12.47-5.03,19.15-.06,3.74,2.58,6.71,2.8,10.19.4,6.42-3.04,17.62-7.75,22.25-.11-2.99,5.28-23.04-2.05-18.54-2.99,3.64-1.76,9.03-3.92,13.08-6.83,12.78-20.69,18.49-29.56,29.44-1.69,2.09-3.02,4.33-3.49,7.02-1.62.31-1.19-2.63-1.03-3.53.96-5.46,6.43-8.34,8.88-13.13,9.17-17.9,5.67-63.76-6.86-79.82-4.25-5.45-11.32-7.43-13.11-13.38l-7.87-.14-.1-3.95-2.78-.12-.12-3.94-5.96.53-3.05-5.53-4.99,1.01v-4.01c-3.32,2.13-7.29-1.4-9.31-.89-1.22.31-5.73,7.18-8.98,9.1-5.6,3.3-15.45,6.19-21.7,3.78l5.89-7.69-2.59-4.19c-2.76-.71-6.63,5.17-8.83,6.87-6.87,5.3-14.36,6.61-22.97,6.03l-.5-1.99c4.97-2.65,12.18-7.41,10.99-14.01-7.47.32-9.88,10.65-18.54,11.96-8.34-3.19-18.79-4.96-26.82-8.1-12.92-5.05-14.12-18.17-22.23-26.77-1.8-1.91-10.4-7.86-12.87-9.13-9.97-5.15-21.82-3.72-32.58-5.42-2.97-6.25-2.74-13.39-5.19-19.81-3.94-10.35-16.51-29.69-28.77-29.72-.95,6.81,7.07,9.41,10.99,13.5,4.7,4.9,10.49,15.04,12.48,21.52,1.88,6.12,1.87,20.77,9.09,21.91,9.67,1.52,18.35-.55,28.63,3.37,20.37,7.77,20.42,30.7,37.24,36.76,13.37,4.82,30.81,6.51,42.82,15.91,6.72,5.26,11.31,22.7,2.7,28.48-8.96,6.02-6.62-5.27-9.37-7.54-1.18-.97-3.6-.91-5.14-1.86-12.13-7.47-8.1-3.95-20.95-3.96-5.76,0-10.3-3.01-16.22.59-11.49,7-3.23,35.09-20.02,38.08-18.67,3.33-3.08-28.91-10.02-32.76-8.54-4.75-13.53,7.51-15.19,13.56-1.96,7.11-.6,21.95-10.93,20.32-2.16-5.61-1.82-10.02-.4-15.66,1.21-4.79,9.63-17.38.78-17.31-12,.1-18.43,33.29-29.96,32.13-6.99-.71-3.76-12.64-1.74-16.74,2.17-4.41,7.89-7.69,8.26-12.81.43-5.9-3.77-8.53-9.33-7.29-8.76,1.94-19.22,30.44-33.79,26.37-7.01-16.96,21.77-20.66,25.52-31.61,3.97-11.57-9.2-14.5-17.93-13.94-7.32.46-13.07,4.21-19.27,5.73-20.41,4.99-42.68,3.38-60.96-7.52-15.71-9.37-21.55-41.68-20.33-58.77.35-4.86,4.6-13.43,4.09-16.93-.41-2.81-4.09-3.57-5.07-1.87-3.03,7.5-3.79,15.45-5.5,23.31-2.14,9.82-4.3,20.97-6.9,31.07-1.26,4.9-7.58,14.2-11.6,17.43-7.07,5.68-19.22,7.85-27.97,5.52-.55-2.29.41-1.63,1.26-2.28,2.65-2.03,5.68-1.97,4.74-6.7-1.93-1.94-16.07,6.39-19.55,6.93-4.39.69-8.17-1.02-12.44-.94l4-10.49c-3.05-2.06-3.91,2.47-6.51,4.5-7.78,6.06-23.35,15.55-32.48,8.5l5.01-6c.68-1.69-2.44-2.46-3.38-2.29s-10.25,7.49-13.12,8.82c-7.12,3.29-17.67,5.09-24.51.47l4.86-7.15c-2.64-6-5.56.11-7.36,1.62-8.3,6.96-15.41,10.1-26.52,7.02.72-4.21,3.29-5.82,3.91-10.6.2-1.53.73-2.77-1.42-2.41-2.3.39-8.54,8.47-11.76,10.29-5.59,3.15-12.48,5-18.72,2.72-.86-1.29,6.25-11.53,7.52-13.97,8.28-15.99,21.42-48.03,14.26-65.3-.58-1.39-1.2-2.01-2.77-1.72-1.78,5.72-.48,11.69-1.02,17.49-1.96,21.1-10.01,36.13-19.9,54.11-2.59,4.71-.73,2.87-4.64,7.33-19.89,22.65-52.12,42.96-82.96,45.07-7.12.49-14.44-.73-21.53.47-2.75,6.6-13.46,26.45-22.51,18.6-3.21-2.78,1.39-13.51,3.34-16.76s14.17-14.86,1.16-11.84c-10.07,2.34-13.96,11.96-23.3,13.46-1.16-.41-1.6-1.25-1.7-2.43-.52-6.25,16-19.5,21.58-22.46l.04-4.1c-12.37-3.91-21.42,11.17-33.58,9.07-.63-4,.53-5.02,2.99-7.51,6.5-6.57,16.76-8.75,24.85-12.65l.15-4.82c-3.27.15-5.99-1.06-9.32-.93-6.94.27-23.03,7.74-27.67,5.43-.81-.41-1.57-1.35-1.83-2.22-.33-14.38,23.05-14.56,33.34-13.29,3.4.42,7.4,2.88,9.99,2.88,4.1,0,11.62-4.18,17.77-3.65,1.9.16,17.59,5.97,18.47,7.05,1.68,2.05,2.85,9.85,4.2,12.05,1.01,1.64,6.19,3.9,6.03,8.1l2.06.12c4.34-3.63.21-15.63-2.61-19.45s-14.92-8.56-15.99-10.04c-1.68-2.33,5.24-11.7,7.23-13.94,17.29,8.07,34.4-8.5,20.41-23.73-.98-5.6,37.17-28.13,43.93-30.38.3-1.63-2.57-1.16-3.51-1.02-2.32.35-5.26,2.33-6.79,1.92-.39-.1-5.16-4.96-5.69-5.67-5.8-7.67-7.13-18.15-11.01-26.78l1.02-1.94c11.02-4.42,21.21-11.43,33.54-11.54,3.83-.04,9.97,2.32,13.84.92,1.93-.7,1.23-3.26,1.76-3.72.59-.52,13.91-3.16,15.41-3.19,3.47-.08,10.79,2.39,12.77,1.9s2.03-2.89,2.96-3.57c3.08-2.24,17.99-5.01,22.27-5.32,2.99-.22,10.74,1.82,12.5-.43.81-1.03.59-2.83,1.61-3.62,5.75-4.44,26.21-.65,33.87-.87,2.65-.08,5.91-.94,8.71-1.32,17.73-2.37,31.28-4.21,49.28-2.75,9.45.77,15.95-2.73,24.1-2.88,4.31-.08,10.59,1.96,14.89,1.98,13.02.06,31.75-1.13,44.99-2.09,9.68-.7,20.43-6.76,29.79-4.76,2.99.64,5.79,3.95,9.72,2.78v-5.01c11.5,0,23.01-.55,34.31,1.86,2.61-.62,2.16-4.14,3.32-4.95.59-.41,12.51-3.78,13.86-3.91,6.33-.62,12.05,1.84,17.87,3.88,1.9-.37,2.04-3.46,3.37-3.87,3.45-1.05,14.05-1.43,17.77-1.01,5.74.64,11.2,6.85,13.11-1.06,5.33,1.77,11.5-1.88,15.77-1.84,7.44.07,12.07,6.38,18.31,9.72,13.2,7.07,27.46,2.89,40.79,10.26l2.07-1.05.46-4.04ZM760.58,106.79c5.79,2.59,16.81,2.38,12.99-6.5-3.29-7.65-18.37-1.73-12.99,6.5ZM818.05,101.17c-3.27.9-8.25,9.08-5.27,11.87,4.43,4.17,9.14-.13,12.37-3.64-.66-3.57-2.46-9.51-7.1-8.23ZM658.1,115.79c8.34-8.34-13.83-19.87-12.3-1.75,2.62,2.49,9.54,4.51,12.3,1.75ZM723.2,104.17c-4.52-2.9-14.89,4.68-9.62,10.62,3.8,2.67,12.01,1.11,11.75-4.15-.04-.83-1.84-6.29-2.13-6.47ZM567.55,112.24c-5.45,3.87,3.16,15.76,8.87,8.38,4.28-5.54-3.18-12.43-8.87-8.38ZM500.04,113.16c-8.7,2.33.24,18.32,8.3,8.38,5.16-6.36-3.71-9.6-8.3-8.38ZM895.16,124.85c1.24-12.58-11.77-13.32-14.64-2.12,3.02,7.58,9,5.66,14.64,2.12ZM611.03,121.19c-3.42,1.04-6.68,8.92-2.01,11.64,12.99,7.57,13.07-15.02,2.01-11.64ZM466.17,124.19c-7.69-2.4-13.48,1.09-11.66,9.67,4.67,2.93,13.48,3.72,14.59-3.14l-2.93-6.53ZM848,127.16c-2.57.87-8.13,12.97-1.11,13.89,13.35,1.74,10.35-17,1.11-13.89ZM429.03,138.74c2.82-3.58,1.51-9.62-3.23-10.73-7.1-.73-11.06,12.91-1.93,14,.75-.03,4.71-2.7,5.16-3.27ZM534.54,129.24c-.23.14-2.91,4.22-2.99,4.51-2.99,10.16,15.16,10.9,11.36-.77-.96-2.94-5.82-5.22-8.37-3.73ZM698.09,140.79c3.92-6.42-5.95-14.78-11.33-10.84-7.47,5.48,3.56,16.83,11.33,10.84ZM974.99,129.24c-2.97.27-5.76,4.42-5.74,7.32.04,7.35,12.99,4.08,13.09.02-.33-2.88-4.43-7.6-7.35-7.33ZM379.54,144.8c6.32,2.03,15.04-2.69,9.81-9.3-6.97-8.81-16.93,1.12-9.81,9.3ZM780.99,133.25c-5.61.49-8.92,13.46.83,12.88,10.55-.62,6.52-13.52-.83-12.88ZM937.08,143.79c7.4-7.29-16.49-17.17-9.35.34,1.9,1.5,7.7,1.28,9.35-.34ZM502.09,148.27c-6.78-6.83-15.68,10.54-4.26,9.86,4.97-.3,7.46-6.64,4.26-9.86ZM659.98,150.19c-15,9.8,4.6,18.02,6.36,6.26.64-4.28-2.84-5.27-6.36-6.26ZM565.57,160.78c3.53,3.39,13.74,1.12,10.23-6.73-3.83-8.58-14.94,2.21-10.23,6.73ZM875.54,155.25c-2.75,1.57-4,9.3,2.28,9.86,12.02,1.07,5.8-14.47-2.28-9.86ZM458.95,156.31c-5.85.67-9.95,11.46,2.17,12.52,11.11.97,7.25-13.59-2.17-12.52ZM810.44,164.91c4.81,3.02,11.61-2.95,7.98-7.47-3.96-4.93-9.68,2.77-7.98,7.47ZM1005,156.17c-5.57,1.92-3.83,12.42,3.37,10.45,6.96-1.91,3.6-12.84-3.37-10.45ZM729.07,160.21c-5.81,1.21-8.58,10.24-1.79,12.36,13.89,4.34,12.24-14.54,1.79-12.36ZM535.99,165.24c-5.6.51-6.35,10.47-2.66,12.29,11.68,4.39,10.77-13.03,2.66-12.29ZM497.02,187.71c6.24-5.71-.18-17.07-7.63-12.12-9.66,6.43-.32,19.39,7.63,12.12ZM955.06,174.24c-3.51.78-4.54,3.8-4.62,7.14,12.89,12.12,18.53-10.25,4.62-7.14ZM686.05,175.24c-3.59,1.06-6.82,9.76-1.75,11.36,11.57,3.63,11.98-14.37,1.75-11.36ZM908.58,190.78c.8.82,2.89,1.38,4.04,1.1,4.43-2.22,4.93-6.7,1.73-10.38-5.38-2.46-9.38,5.62-5.77,9.28ZM1027.06,181.18c-5.99,1.63-4.77,12.43,2.57,11.72,4.35-1.07,4.26-13.58-2.57-11.72ZM648.04,182.16c-4.94,2.47-10.09,13.42-2.17,14.87,9.73,1.78,10.66-4.38,10.06-12.03l-7.89-2.83ZM391.1,183.19c-7.76.76-8.52,12.83,1.5,10.63,7.01-1.54,2.45-11.01-1.5-10.63ZM576.08,184.18c-5.11,1.93-8.26,8.58-4.11,12.7,9.69,3.24,14.21-10.68,4.11-12.7ZM850.45,186.16c-.52.32-3.1,7.4-2.7,8.9,1.78,6.72,11.49,4.35,10.42-2.27-.45-2.77-4.4-8.67-7.72-6.62ZM448.48,202.89c7.67,4.55,15.72-3.13,8.9-9.4s-10.36,3.04-8.9,9.4ZM991.05,192.21c-4.16,1.21-5.84,8.69-.77,10.38,10.63,3.54,9.91-13.04.77-10.38ZM359.03,196.2c-3.33,1.03-5.19,7-.43,9.07,8.65,3.76,8.78-11.65.43-9.07ZM726.08,199.3c-7.25-6.54-15.64,12.06-4.35,11.68,6.81-.23,8.56-7.88,4.35-11.68ZM796.18,215.87c2.24-1.39,4.13-12.46-2.2-11.66-3.24,2.69-6.59,3.27-5.67,8.31.55,2.98,5.89,4.58,7.87,3.36ZM396.02,208.23c-2.17.67-4.09,4.94-4.52,7.16,10.17,12.87,19.55-11.76,4.52-7.16ZM674.63,217.32c-7.54,9.07,8.94,14.67,10.63,4.21-.77-5.2-6.85-8.76-10.63-4.21ZM761.09,223.29c-5.05-3.57-10.59,4.02-6.77,8.26,2.54,1.96,5.25,1.75,7.54-.51l-.77-7.75ZM341,224.2c-4.26,1.49-2.87,9.59,2.84,9.93,8.95.53,7.02-13.38-2.84-9.93ZM375.21,225.17c-3.01-1.87-8.44,3.51-7.91,7.3.88,6.18,10.69,2.91,9.84-2.7-.08-.51-1.72-4.47-1.93-4.6ZM797.06,231.22c-8.14,1.74-4.6,13.5,3.61,10.65,3.83-1.32,4.44-12.37-3.61-10.65ZM1013.63,241.72c7.48,6.25,12.66-10.82,2.17-10.8-4.89.01-5.78,7.78-2.17,10.8Z"/>
      <path class="cls-4" d="M1067.15,176.23c.75.44,7.07,12.87,7.7,14.78,3.29,10.01,1.95,18.88,3.74,28.26,1.06,5.58,4.17,8.89,5.48,13.52,4.31,15.16,2.01,31.79,3.75,47.26.91,8.13,4.15,17.42,4.55,25.44.7,14.04-6.95,30.59-9.71,44.36-3.05,15.2-.59,30.18-7.78,44.22-5.3,10.35-16.08,19.56-23.51,28.49-9.33,11.21-12.04,20.31-27.34,26.66-8.01,3.33-15.25,2-23.2,4.8-6.68,2.35-11.6,7.47-17.58,10.42-5.73,2.83-38.9,10.49-45.46,10.62-4,.08-7.74-1.66-12-1.08-19.28,2.62-37.68-.77-56.93,1.07-16.81,1.6-27.97,6.49-45.92,3.88s-35.97-8.07-54.94-8.52c-22.26-.53-45.95,9.14-68.15,7.6-7.54-.52-15.64-3.44-23.03-3.97-19.87-1.42-41.52,7.63-60.98,7.98-9.01.17-19.93-2.55-28.95-3.05-14.2-.78-28.43,2.91-42.05,3.05-14.98.15-32.06-4.32-46.95-5.05-18.36-.9-37.78,4.25-56.06,4.13-18.56-.13-37.53-4.92-56.03-4.12-19.65.85-39.18,9.5-58.84,7.92-11.42-.92-24.05-5.58-35.41-6.58-14.84-1.31-31.35,3.87-45.72,3.79s-29.49-4.99-43.02-6.07c-11.89-.95-45.39,2.87-53.43-4.57-2.23-2.06-2.87-6.72-1.55-9.46,3.23-6.7,29.98-4.49,36.88-5.12,13.05-1.19,29.53-9,41.12-8.87,4.62.05,10.11,2.81,14.98,3.04,10.13.47,22.88-7.2,29.14,3.83l3.24-1.04.15-7.84c8.01,3.31,18.18-1.28,25.05-.55,6.12.65,5.7,5.95,9.43,5.62,3.24-.34,2.53-3.71,2.51-6.08,8.46.15,16.46-2.7,24.88-.87,1.25,1.8.78,8.05,3.62,7.95,7.17-.25,2.41-8.91,3.51-10.07,2.85-.32,4.69,1.95,7.5,2.07,4.28.19,8.3-1.96,13.76-.84,5.8,1.19,10.18,12.78,10.89-.57l1.41-1.55c4.55,1.33,9.3.95,13.96.93,6.19-.03,14.83-4.35,14.91,6.01l3.96,1.01,3.17-8.96c6.24,2.14,12.24-1.12,18.87-.04,3.4.55,5.29,3.98,7.06,4,3.17.03,2.72-5.33,3.62-5.93,1.51-1.01,18.25-1.34,20.94-.69,3.75.9,5.54,4.95,8.43,4.66,2.41-.24,2.06-2.87,3.2-3.14,2.92-.71,5.91,1.72,8.61,1.73,4.24,0,8.87-2.81,12.43-3.44,7.03-1.24,16.59,2.36,24.79,1.81s14.55-4.73,23.74-2.82c2.74.57,4.8,3.26,7.27,3.73,11.55,2.17,18.48-6.17,29.96-4.95,7.75.83,6.32,4.93,11.97,8l3.18-5.08c9.77,2.85,21.51-5.34,30.9-1.97,2.42.87,5.8,4.64,7.88,4.03l3.21-4.92c12.7,3.41,22.81-5.66,35.68-.21,2.68-.65,2.26-4.17,2.86-4.67.25-.21,5.66-1.04,6.36-1.01,4.57.22,11.72,4.65,15.11,7.74,2.49.45,3.93-4.62,5.06-4.93,2.32-.63,6.67.35,9.68-.09,8-1.17,15.34-6.43,23.84-2.63,3.2,1.43,4.22,5.87,8.76,4.74-2.57-9.08,7.98-7.83,14.26-6.76,4.45.75,6.85,4.29,11.14,4.72,2.95-3.78-.09-6.42,6.38-7.67,6.4-1.24,15.85,3.27,18.49,2.56,4.82-1.28,1.78-7.41,8.02-10.02,9.57-4,16.19,1.71,21.99-.02,1.9-.56,3.35-3.74,6.14-4.89,4.83-2,12.43-2.35,17.65-3.36l.93-3.57c2.36-.26,3.37,2.48,5.6,2.73,8.26.93,14.85-4.58,22.14-5.46,10.28-1.24,29.92-2.56,39.24-5.77,4.69-1.61,10.58-5.93,16.03-7.97,4.35-1.63,11.6-2.14,15.35-4.65,2.7-1.8,2.66-5.27,4.26-5.81,1.74-.59,6.39,1.53,9.81.9,10-1.86,19.65-12.13,26.51-18.51,6.54-6.09,14.11-7.2,21.05-12.95,5.66-4.68,10.02-9.41,9.15-17.35,11.34-3.24,19.38-6.79,20.7-19.78.52-5.13-.97-8.67-.9-12.82.21-12.86,10.06-22.61,7.97-35.99-.48-3.08-3.7-6.67-2.81-9.86.61-2.18,4.72-2.98,6.11-5.97.71-1.54,2.64-10.61,2.67-12.35.1-5.27-4.84-7.32-3.87-13.82.68-4.58,7.97-11.22,8.9-17.13,1.07-6.79-.83-13.82-1.93-20.43l6.31.08,1.69-6.09c.9.1,1.98-.27,2.81.21ZM1067.08,229.78c5.72-5.98-4.58-12.92-8.25-5.75-2.47,4.82,6.11,7.99,8.25,5.75ZM1079.09,257.78c5.73-5.82-4.58-13.52-8.3-4.72-1.57,3.71,5.15,7.92,8.3,4.72ZM1059.05,281.21c-3.95,1.18-6.53,7.68-1.48,10.08,10.32,4.9,10.28-12.69,1.48-10.08ZM1053.37,337.97c4.21,1.62,10.56,3.99,12.52-1.88,3.48-10.43-14.18-7.99-12.52,1.88ZM1021.03,355.35c-1-.87-2.37-1.51-3.67-.86-6.03,3.61-4.01,13.52,3.26,11.37,4.24-1.26,3.07-8.2.41-10.51ZM1025.12,378.21c-11.3.86-7.9,15.44.99,11.09,3.87-1.89,3.9-8.81.6-11.19-.54-.17-1.06.06-1.59.1ZM976.04,389.19l-3.74,6.3c5.54,12.34,19.4-7.36,3.74-6.3ZM919.06,409.26c-8.04-.11-10.14,11.37-1.1,11.75,6.5.27,6.56-11.67,1.1-11.75ZM949.07,418.19c-1.99.36-7.75,5.35-7.77,7.34-.04,3.48,10.21,7.71,14.46,2.44,4.2-5.19-.7-10.86-6.7-9.78ZM862.19,432.89c1.06-5.08-.61-8.8-6.3-7.86-7.99,1.32-1.03,13.1,6.3,7.86ZM818.58,428.27c-5.69,5.66,6.49,11.57,7.75,4.21,1.05-6.16-4.74-7.21-7.75-4.21ZM898.07,428.17c-7.42,1.03-2.34,9.73,4.29,6.39,2.28-1.42-.96-6.85-4.29-6.39ZM731.18,450.88c1.86-2.94-1.23-8.99-5.19-8.64-11.74,4.67,2.22,13.35,5.19,8.64ZM783.08,442.19c-3.63.68-4.69,3.63-3.32,6.91,10.66,5.52,12.07-8.54,3.32-6.91ZM676.31,454.99c.79-1.14-2.11-8.19-4.48-8-4.43-.15-5.43,2.93-6.5,6.59,0,4.12,8.56,2.3,10.98,1.41ZM585.05,450.24c-2.44.73-4.85,4.37-3.25,6.81,12.25,8.43,14.15-10.08,3.25-6.81ZM459.04,451.15c-4.61,1.19-5.61,9.66.66,9.73,4.74-1.8,4.67-11.11-.66-9.73ZM386.99,452.25c-2.42.23-4.92,3.89-5.57,6.15,4.49,5.86,8.82,4.07,9.88-2.94l-1.59-2.35-2.73-.86ZM494.42,458.93c2.97,1.65,8.3,1.45,8.95-2.42,1.29-7.67-11.21-5.15-8.95,2.42ZM547.27,454.09c-3.2-.92-6.79-1.76-8.47,1.97-3.05,6.75,10.43,6.04,8.47-1.97ZM624.03,453.2c-6.04,1.83-4.2,11.33,4.37,7.39,2.38-4.07,1.21-9.08-4.37-7.39ZM432.06,454.19c-6.38.96-5.62,10.16.67,9.85,7.01-.35,6.04-10.85-.67-9.85ZM359.58,456.28c-5.44,5.44,4.31,10.92,8.7,4.13.3-4.3-5.63-7.19-8.7-4.13ZM229.58,457.28c-2.48,2.48-1.13,8.31,3.79,7.36,10.36-2,.84-11.99-3.79-7.36ZM323.04,456.16c-2.21.63-4.33,5.05-3.62,7.23,5.35,5.13,12.74-1.51,6.92-6.89l-3.3-.34ZM292.2,464.9c2.11-11.66-13.09-9.74-7.46.22,2.21,1.76,5.16.74,7.46-.22ZM209.23,459.13c-8.65-4.57-11.74,8.94-1.49,4.82l1.49-4.82Z"/>
      <path class="cls-4" d="M85.44,120.91c9.5,4.11,6.87-11.14,6.32-16.83-.08-.82-1.2-3.03,1.06-2.05,4.38,1.91,7.68,9.78,7.59,14.49-.04,1.93-3.15,12.45,1.4,11.49,5.26-1.1,4.82-19.86,1.52-23.99,7.57-.89,9.46,11.62,8.9,17.37-.26,2.63-4.35,10.92,2.51,8.54,2.89-1,2.71-14.46,2.58-17.41-.05-1.03-2.46-7.69.49-6.5,5.23,4.08,6.04,10.08,5.4,16.39-.42,4.15-4.73,10.07,2.53,10.57,5.33-6.37,2.57-14.57,2.54-21.45s5.73,1.2,6.86,3.16c4.27,7.43,6.21,14.31,3.42,22.71,7.26,8.73,8.47-6.05,7.67-11.8-.52-3.75-3.35-6.63-2.9-10.58,10.52,3.15,14.13,4.4,12.88,16.39-.3,2.88-3.86,11.25-3.73,11.96.38,2.1,4.01,3.51,5.9,2.2,2.78-1.92,4.36-19.54,3.95-23.56,8.99-1.34,13.81,13.43,13.04,20.52-.49,4.56-6.12,11.31,4.07,8.88,4.35-8.97,2.45-17.53-1.11-26.4,7.26-.24,14.08-.09,21.23,1.26,15.37,2.92,21.21,5.25,37.55.01,5.45-1.74,10.95-6.23,15.98-7.01,9.76-1.51,21.85.59,28.25,8.5,3.98,4.91,2.29,12.85,9.98,11.24,1.06-7.26-3.43-11.94-5.99-18l16.99-1c-8.42,18.22-14.2,38.05-16.47,58-.99,1.34-1.29.95-2.59.58-2.95-.84-6.75-5.53-10.66-6.35-17.06-3.57-24.79,24.33-7.84,29.83,3.9,1.27,8.5,1.24,12.56,1.94l-8.21,24.77-17.78-.78c.46-5.21,14-7.33,10.05-12.55-2.16-2.85-10.41,3.41-12.55,5.57-3.52,3.56-3.79,8.6-4.73,9.77-.32.4-7.37,2.75-9.29,4.21-2.87,2.18-2.86,4.64-4.56,6.44-1,1.07-8.1,8.11-8.65,8.35-6.3,2.65-27.46,1.48-35.77,2.23-18.26,1.64-36.72,6.87-55,8-1.6-1.08.78-1.19,1.5-1.48,18.31-7.51,37.99-13.73,55.97-22.05,14.49-6.7,25.26-13.82,29.12-30.37,8.56,1.03,15.27-5.26,22.04-9.52,1.94-1.22,3.8.48,2.74-3.97-3.39-4.53-7.13.98-10.19,2.57-13.17,6.88-17.14,6.68-28.71-2.68-7.58-6.14-11.19-12.77-20.33-17.67-1.98-1.06-10.58-5.85-11.23-5.86-1.61-.04-3.9,1.23-6.88,1.04-21.43-1.41-32.84-19.55-51.28-22.78-20.53-3.6-16.49-3.18-33.88-12.12-18-9.25-36.39-2.95-51.61-9.39-16.53-7-2.79-9.58-1.22-12.74,1.2-2.42-3.74-7.12.97-10.97,3.74-3.05,8.72,1.01,11.85-.1l1.15-.9c1.12-8.47,9.53-10.59,17-11,9.62-.53,22.36,4.05,27.32,12.65,4.47,7.76.33,10.43.27,18.22ZM61,99.17c-4.14,1.37-3.71,10.84,3.61,8.69,6.8-2,2.54-10.72-3.61-8.69ZM43.08,110.19c-4.96.86-5.49,7.82-.8,9.39,8.92,2.99,9.93-10.98.8-9.39ZM236.09,133.28c-19.01,2.44-36.23,20.64-7.98,26.47,11.59,2.39,30,2.1,36.65-9.81,9.46-16.96-18.4-17.98-28.66-16.66ZM239.25,212.11c-1.85-2.7-14.08,3.16-16.26,5.08-4.53,3.99-4.86,10.25-11.32,14.68-3.18,2.18-11.65,3.5-9.86,8.17,2,4.15,13.5-2.65,16.02-5.01,3.91-3.66,5.75-10.32,9.47-13.53,3.35-2.88,7.91-3.22,11.57-5.42l.38-3.96Z"/>
      <path class="cls-1" d="M831.19,332.17c.87,1.66,1.05,3.47,1.19,5.32.48,6.55.8,34.04-1.63,38.46-4.28,7.82-15.33-.13-17.75.24-1.4.21-2.89,2.47-7.12,2.89-12.13,1.18-29.17-.08-42.01,0-29.18.17-58.38-.21-87.55-.04l-1-44.01,155.86-2.86Z"/>
      <path class="cls-1" d="M533.33,378.53l-2.5,1.5-156.5,2.01-1-42.01,134.34-3.62,25.25,1.6c-.39,1.48.42,3.57.42,4.53v36Z"/>
      <path class="cls-1" d="M299.33,387.03v35c-6.28,2-12.26,3.73-18.99,2.99-.4-5.01,10.35-10.88,7.54-15.04-2.05-3.04-11.14,3.97-13.46,5.63-16.44,11.72-25.67,22.97-47.81,26.21-8.29,1.21-9.39,1.99-17.51,4.48-15.3,4.68-32.64,7.6-48.33,4.8l-1.44-61.07,140.01-2.99Z"/>
      <path class="cls-1" d="M457.33,292.03v38.5c0,.31,1.38,1.41,1,2.49-27.41,2.1-55.03,1.29-82.54,1.97-2.13.05-4.07.98-5.97,1.03-21.86.56-43.59,1.19-65.49,1.02-.12-3.81.2-7.68,0-11.49-.39-7.18-.94-15.83-.78-23.01.33-14.85,8.13-10.36,20.33-10.46,4.89-.04,7.39-1.72,12.89,1.03l120.57-1.07Z"/>
      <path class="cls-1" d="M48.33,392.03c7.6-1.98,15.72-.64,23.54-.96,23.29-.95,46.79-.29,69.92-1.08,2.25-.08,10.37-.38,11.6.48,1.03.78.85,1.92.98,3.02,1.67,13.81,0,34.42.05,48.93,0,2.84,2.42,6.74-.72,9.68-1.96-.36-3.8-1.08-5.84-1.12-32.04-.6-64.02.67-96.06.06l-1.97-1.03c-.15-1-1.51-2.88-1.51-3.49v-54.5Z"/>
      <path class="cls-1" d="M463.33,292.03l69.48-1.02c9.54-9.63,16.77-5.2,27.98-4.94,6.67.16,13.41,0,20.09-.02,3.85,0,23.8-2.46,24.49.64l.97,44.34c-8.87-.49-17.67.84-26.46,1.04-21.56.49-43.22-.21-64.01,0-17.71.17-35.34.5-53.04.96-1.5-.38.5-2.18.5-2.51v-38.5Z"/>
      <polygon class="cls-1" points="367.33 382.03 226.33 384.03 225.27 341.61 367.33 341.53 367.33 382.03"/>
      <polygon class="cls-1" points="669.19 335.17 671.22 376.6 669.68 378.88 539.33 380.03 538.33 337.02 669.19 335.17"/>
      <path class="cls-1" d="M531.33,244.03c.73,13.57-1.93,28.86,3.01,41.47l-1.67,1.37-159.35,1.16.93-13.58c12.39-7.47,23.65-15.95,33.73-26.27,4.28,2.03,9.13,2.39,13.86,1.86,4.08-.46,7.96-3.25,11.88-2.97,4.76.34,10.02,4.21,16.12,4.05,4.97-.13,10.46-4.17,13.9-4.05,4.36.15,10.02,4.14,16.1,4.05,7.84-.12,13.58-5.07,18.18-5.87,1.24-.22,7.55,3.15,10.07,3.56,9,1.44,15.21-1.64,23.25-4.76Z"/>
      <path class="cls-1" d="M96.33,341.03l123.01-1.01c-1.56,14.7,3.08,29.78-.58,44.06l-79.97,1.97c-6.62-.08-13.3-.91-19.9-1.08-5.45-.14-14.61,1.24-18.93.76-.96-.11-3.62-1.66-3.62-2.21v-42.5Z"/>
      <path class="cls-1" d="M611.33,286.03h93c-2.4,7.72-5.95,25.11,2.45,30.05,6.95,4.09,6.9-8.69,9.38-13.73,2.22-4.52,10.48-14.39,15.12-15.88,2.89-.92,6.09-.3,9.05-.44-1.14,2.53-.5,6.06-1.2,8.29-.58,1.84-2.87,2.46-3.56,4.44-2.58,7.39-1.64,17.18,2.94,23.6,7.79,10.94,8.26-3.63,10.62-9.03l6.21-10.29v26l-144,2v-45Z"/>
      <path class="cls-1" d="M838.33,332.03l138-1.99c-1.32,4.2-2.05,9.77-3.8,13.69-1.27,2.82-7.64,13.24-9.71,15.29-2.18,2.17-8.43,6.81-11.5,6.5,3.93-6.28,4.94-15.25,8.82-21.18,2.19-3.35,8.18-5.69,5.72-9.35-1.82-2.71-8.86,2.63-10.38,4.69-4.71,6.4-6.29,20.66-12.22,26.78-1.88,1.94-19.97,11.56-20.92,10.57,1.17-8.59,6.2-13.77,11.45-20.06,1.84-2.2,7.57-4.01,1.2-7.81-1.79.17-9.33,7.57-10.65,9.38-3.48,4.79-4.35,12.54-7.54,16.46-.81.99-5.25,4.04-5.96,4.04h-16.5c2.04-6.48,7.8-9.37,13.55-11.95,1.3-12.03-14.55.52-17.98,5.01-1.38,1.8-2.08,5.16-3.51,6.49-3.32,3.09-17.67-1.02-23.06.44,1.65-4.2,13.16-3.92,10.53-9.01-4.63-8.97-25.84,13.17-33.52,9.02-.5-4.05,8.45-3.59,5.04-7.54-2.23-2.59-4.3-.96-7.05-.46v-39Z"/>
      <path class="cls-1" d="M918.33,284.03v41.99s-157.06,2.59-157.06,2.59c-2.42-2.7-.06-6.38-.14-9.08-.19-6.42-1.55-13.34-.78-19.98l8.62-14.56,3.35.04c-2.03,5.46-.3,10.42-.2,15.49.04,2.07-1.02,4.23-.83,6.98.52,7.68,9.35,21.24,18.03,18.51-1.19-5.83-4.56-15.49-3-21.27.25-.92,2.13-1.26,2.85-2.33,5.92-8.67,2.71-22.94,10.67-31.38,2.16-.42,1.53,1.01,1.52,2.51-.06,7.82-3.97,15.98-1.37,24.31.92,2.96,3.65,4.16,4.14,5.86.58,2-.08,4.43.43,6.57,1.28,5.38,7.82,14.42,13.33,15.72,6.45,1.52,3.1-7.2,3.44-11.48.83-10.39,7.43-18.66,10.96-28.1,4.36,2.2,9.15-3.32,10.48-3.47,3.47-.39,28.46-.1,29.51,1.12.14,2.99-1.24,6.35-2.28,9.14-1.44,3.86-7.74,9.9,1.81,9.92,4.62.01,13.16-6.11,16.16-9.45,2.63-2.92,2.84-7.09,5.85-9.65h24.5Z"/>
      <path class="cls-1" d="M246.33,294.03c.97.97-6.37,23.5,3.83,20.81l6.9-9.67c5.46.11,9.66,4.47,15.27,1.86-2.12,6.63-.13,18.13,5.29,22.7,7.27,6.14,7.49-7.02,9.18-11.74,2.17-6.05,5.33-10.48,11.54-12.96v32l-138.8-1.67-1.19-1.09-2.01-40.24h90Z"/>
      <path class="cls-4" d="M271.29,67.07c.96,4.36,4.55,7.28,6.27,11.23,1.04,2.41.67,7.76,3.45,8.62l23.32-5.89c.4,2.28-1.4,3.54-1.93,5.56-2.51,9.56-4.53,14.24-8.81,23.19-.73,1.53.41,4.43-1.89,5.11l-42.82-1.92c-3.44-.57-6.33-3.97-9.56-5.44-15.48-7.05-35.81-3.62-44.71,11.51-6.04,1.63-36.33-3.45-41.64-7.16-7.75-5.43-9.87-30.31-.21-35.9,9.76-5.64,10.35,9.08,12.79,14.32,1.37,2.94,8.06,13.05,11.84,10.31,1.88-2.47.76-6.13-.14-8.81-.24-.7-1.74-.66-1.86-1.4-.74-4.71,1.38-16.41,6.44-18.42,4.09.03,4.33,16.19,6.3,20.74.82,1.89,3.08,5.97,5.52,5.21,5.58-3.11,2.64-7.85,3.11-11.95s4.15-10.92,7.63-13.38c13.21-9.34,8.27,7.09,9.04,13.82.36,3.09,2.26,11.18,6.76,8.46,2.89-1.75,1.31-19.96,11.61-20.94,14.63-1.4,5.12,20.59,6.63,22.97,1.9,2.98,7.04-1.64,8.89-2.38,5.36-2.13,9.75-1.34,15.35-1.65,6.68-6.2-10.16-15.1-2.3-21.3.89-.7,10.36-4.89,10.9-4.52Z"/>
      <path class="cls-1" d="M151.33,294.03v42H48.34c.05-4.66,1.1-9.98,1.07-14.52-.04-7.39-.48-13.25-.1-20.99.24-4.99-2.44-5.95,5.79-7.23,17.05-2.65,42.9.4,60.69.78l35.54-.04Z"/>
      <path class="cls-1" d="M670.33,257.03v23l-58.57.08c-3.55-4.02-3.86-.6-7.88-.03-16.31,2.33-39.97-1.04-57.08-.11-3.25.18-5.45,1.42-8.46,2.05-1.71-1.21-1.2-32.98-1.01-38.01,3.59-.45,6.94,1.07,10.49,1.08s7.17-1.48,9.92-1.06c8.49,1.29,10.95,5.53,23.01,3.9,2.92-.4,6.71-2.85,9.11-2.82,2.11.03,6.38,3.74,10.42,4.46,11.86,2.1,21.17-1.61,31.5-6.6,11.18,8.38,24.71,12.91,38.55,14.05Z"/>
      <path class="cls-1" d="M458.34,400.02c-7.3-.8-12.64,5.07-18.31,8.2-3.7,2.05-8.63,3.87-12.05,5.95-.69.42-10.06,9.2-8.63,4.38s14.88-11.29,7.51-14.54c-13.27,8.33-28.33,13.12-43.16,17.9-1.28.57-1.85-.27-1.36-1.37s16.92-13.81,6.52-12.55c-1.36.17-11.43,7.19-14.55,8.52-8.11,3.46-18.46,5.77-26.98,8.51.39-3.42,2.57-7.12,4.96-9.53,2.87-2.9,9.73-4.83,10.57-6.43,1.1-2.08.37-3.79-2.03-4.07-1.17-.14-19.73,6.75-22.19,7.84-8.34,3.7-14.72,10.81-23.3,12.19-.87-.75,4.96-7.67,5.96-8.53,3.95-3.39,11.1-3.37,10.04-9.46-10.01-.96-17.03,7.42-26,9.99l-1.01-30,150.51-2,2.02.98c3.09,4.4-.61,9.03,1.48,14.02Z"/>
      <path class="cls-1" d="M606.34,384.02c-.52,3.39,1.18,10.08-.99,12.52-.74.83-5.19,2.7-6.93,4.07-14.67,11.58-16.02,11.21-33.05,17.95-2.02.8-10.28,6.8-10.05,2.97.46-7.53,3.77-15.71,10.67-19.34,4.32-2.28,14.11-2.05,6.69-8.02-6.86,2.15-12.85,2.63-19.39,6.32-6.89,3.88-11.03,10.26-17.66,14.34-3.4,2.09-15.31,7.75-18.84,8.18-2.49.3-1.6-2.59-1.22-4.24.44-1.93,4.04-9.41,5.3-10.7,2.93-2.98,15.28-3.7,14.45-7.53-.57-2.65-12.86-.95-15.39-.41-14.64,3.11-27.2,25.19-41.1,25.92-1.59.08-1.71.18-1.49-1.49.27-2.1,3.07-11.23,4.12-12.9,3.09-4.88,12.81-4.82,13.74-8.28,1.47-5.52-7.79-2.36-10.59-1.57l-21.27,12.22c-.39-5.23-.43-8.28,2.94-12.37-5.08-4.04-2.28-10.9-2.95-16.63l143.01-1Z"/>
      <path class="cls-3" d="M305.36,184.99c-.85-.97,5.74-21.77,6.71-24.73,5.18-15.83,10.41-31.25,15.56-47.44,6.17-19.41,14.12-38.38,16.7-58.79-1.96-2.26-7.61,11.37-8.02,12.47-10.16,27.39-18.31,56.89-27.45,84.55-3.49,10.56-6.18,21.39-9.54,31.98l-9.88-4.65c.99-10,3.57-19.73,6.38-29.36,7.7-26.42,20.07-51.31,30.47-76.53l30.04-62.45c.82,7.97-1.11,15.67-1.98,23.5-4.38,39.39-14.82,102.15-29.51,138.49-.89,2.21-5.28,11.05-6.46,12.53-3.61,4.52-8.48.7-13.01.43Z"/>
      <path class="cls-1" d="M95.33,265.03c-.47-.43-3.32.97-2.99-.99,5.15.54,11.59-.76,16.55-.06,32,4.48,49.48-3.4,79.96-5.94,9.09-.76,19.28-.42,28.49-1-.46,3.97-2,10.54-1.02,14.3.27,1.02,2.04.99,2.49,1.68,1.7,2.61-.14,12.33.54,16.02-5.65-.35-10.89.97-16.55,1.05-28.43.39-57.7-.21-85.91-1.09-6.6-.21-13.26.22-19.85.08-.66-.2-1.69-2.26-1.69-2.54,0-2.95.79-20.77,0-21.5Z"/>
      <path class="cls-1" d="M989.33,278.02l-93.94.95c-2.43-5.73,1.17-8.68,1.85-13.53.78-5.53-.11-11.01-3.1-15.72l-6.8-8.68c4.09.14,8.79-2.97,12.53-3.07s10.82,3.15,15.87,2.97c3.5-.12,7.51-2.86,10.97-2.82,4.15.05,9.14,2.85,13.4,3.64,13.14,2.43,22.46-.88,34.56,7.44,9.02,6.2,12.02,18.86,14.66,28.82Z"/>
      <path class="cls-1" d="M754.34,383.03l-.7,3c-5.62.96-6.76,7.8-10.25,11.54-8.72,9.34-16.5,9.38-27.02,12.98-2.46.84-10.25,7.24-8.84,2.17.66-2.36,4.91-10.46,6.46-12.43,2.93-3.71,13.61-7.36,5.01-11.12-8.03,6.89-17.77,8.58-27.05,12.97-3.53,1.67-10.3,7.02-13.14,7.87-3.02.9-.39-4.08.12-4.89.75-1.17,4.27-4.93,5.34-5.66s15.19-4.8,7.4-7.28c-11.46-3.65-30.09,18.97-39.42,24.26-2.99,1.69-11.41,5.66-14.45,6.56-2.6.77-1.38-4.18-1.21-5.22,1.15-7.15,5.1-13.07,11.37-16.63,3.4-1.93,7.4-.07,6.37-6.13-17.13-1.14-24.87,19.25-42,20,.27-4.1-.38-8.5-.06-12.55.43-5.57.74-2.76.11-9-.32-3.12.1-6.33-.05-9.45l142.01-.99Z"/>
      <path class="cls-1" d="M990.33,282.03c.66,9.7,1.97,20.67.88,30.37-.64,5.62-2.03,9.11-7.53,11.47-6.41,2.75-30.16.99-38.89,1.11-7.33.1-15.1,2.6-22.31-.1l.87-40.85,66.98-2.01Z"/>
      <polygon class="cls-1" points="43.33 443.02 6.41 430.46 4.34 380.03 43.9 392.02 43.33 443.02"/>
      <path class="cls-4" d="M143.12,217.23c.25.13.31,1.44.9,1.79,3.57,2.12,6.3-.38,9.85-.11,1.88.14,1.37,2.09,2.08,2.17,1.59.17,3.54-1.31,5.79-1.05,4.37.5,8.94,6.37,14.58,3l-1.99,4.99c3.54-.37,5.41-1.32,8.55.96l8.44.03-46.57,18.94c-8.66-.67-19.2.47-26.93-4.92-2.17-1.51-12-14.5-13.49-6.5-1.39,7.49,2.21,14.83,4.99,21.49-1.77,1.72-24-7.9-25.5-10.99-1.02-2.11-.74-6.59.17-8.77,1.89-4.55,27.55-10.55,33.51-12.56,4.56-1.54,21.63-10.44,25.62-8.47Z"/>
      <path class="cls-1" d="M89.33,340.03c-.32.98,1,2.17,1,2.5v43.5l-41.56-.94c-.81-14.54-.86-29.52.83-43.8.92-.15,2.69-1.26,3.23-1.26h36.5Z"/>
      <path class="cls-1" d="M44.33,386.03c-1.46,1.47-38.43-10.22-39.5-11.99l-1.49-45.01c9.93,2.77,20.44,5.08,30.21,8.29,2.56.84,9.29,2.6,10.29,4.71l.49,44Z"/>
      <path class="cls-1" d="M44.33,291.03v45l-34.25-9.99-1.76-4.02-3.98,1c-.14-5.5.14-11.03.03-16.54-.05-2.42-1.13-4.62-1.12-6.96,0-5.84,2.19-13.15,1.08-19.5,2.56-2.53,34.32,11.14,40,11Z"/>
      <path class="cls-4" d="M850.21,62.89c4.13-10.04,11.81-26.07,24.64-25.88,15.14.21-1.37,19.92-2.09,24.96-.42,2.95.28,9.59,4.56,7.56,2.88-1.36,9-10,12.51-12.5,4.77-3.4,9.59-4,14.87-.88s3.64,8.17,2.11,12.86c-.38,1.16-2.26,6.33-4,6.05-3.6-.58-8.04-11.4-9.42-14.59h-4.11c-1.17.8-.57,20.69-3.49,21.55-4.85,1.41-19.21-15.98-21.65-20.29-2.15-3.79-.34-8.27-6.79-7.7.51,8.96,2.74,17,.99,26-3,.65-4.03-2.1-6.29-3.21-3.97-1.94-21.38-8.43-21.75-12.29-.21-2.17,1.58-4.27,1.82-6.23,1.14-9.35,1.09-17.93,9.2-24.8,2.43-2.06,10.24-6.84,11.06-1.94s-3.73,9.07-5.52,13.48c-2.11,5.17-5.47,18.94,3.37,17.86Z"/>
      <path class="cls-1" d="M706.33,280.03h-30l-1-23c7.04-.48,15.38-.93,22.24-2.26,10.13-1.97,18.38-6.91,29.32-5.8,7.94.8,7.9,5.73,2.36,10.48-7.44,6.37-19.86,8.84-22.92,20.58Z"/>
      <path class="cls-1" d="M267.05,177.22c5.16-1.56,12.42,4.8,17.61,6.99,7.12,3,18.84,6.55,26.43,8.57,7.78,2.07,27.97,1,24.8,13.27-3.85,14.88-22.97,2.33-31.55-.51s-20.67-6.16-29.73-8.27c-3.43-.8-6.93.41-10.55-1.45-7.07-3.62-3.08-16.76,3-18.59ZM268.43,191.93c5.77,3.6,9.21-11.89.39-7.91-1.75,1.31-1.68,7.11-.39,7.91ZM325.04,201.2c-2.91.83-5.6,5.94-2.1,7.78,6.65.82,9.23-9.81,2.1-7.78Z"/>
      <path class="cls-1" d="M44.33,287.02l-39.96-12.03,1.97-26.97c13.46,2.72,25.99,8.61,38.54,13.96,1.49,8.35-1.55,16.6-.55,25.04Z"/>
      <path class="cls-1" d="M90.33,264.03l-1.04,24.96c-6.84-.7-13.62.2-20.5.09-6.08-.1-12.3-2.46-18.81.04-.96-.19-1.46-2.64-1.46-3.54,0-4.6.99-14.4,1.83-19.03.21-1.13.47-1.87,1.49-2.51h38.5Z"/>
      <path class="cls-4" d="M344.04,129.34c2.06,2.48,7.07,13.18,7.27,16.31.05.83-.12,8.33-.2,8.77-.24,1.25-2.27,1.97-2.55,3.23-.4,1.83,1.93,5.91,1.54,7.78-.23,1.1-2.04,1.87-2.54,3.34-.66,1.94-.22,4.42-1.14,6.85-.42,1.1-14.12,14.54-15.1,14.95-.75.31-11.67-.06-10.83-2.85l10.89-24.14c3.36-11.77,7.5-23.32,8.97-35.53.42-.47,3.19.68,3.7,1.3Z"/>
      <path class="cls-1" d="M801.33,383.03c-6.33,10.01-13.01,21.93-25.49,25.01-1.12-2.45,2.87-8.68,4.47-10.53s4.11-2.69,5.49-4.51c2.38-3.17.79-6.55-2.41-5.5-3.02.99-8.36,8.79-11.54,11.55-1.04.9-9.69,6.89-10.51,5.98,1.52-7.16-3.33-15.84.49-22h39.5Z"/>
      <path class="cls-4" d="M142.34,211.02c-.65-2.34.6-1.69,1.27-2.28,5.88-5.19,13.27-10.68,18.11-16.82,2.25-2.85,7.46-13.31,9.63-14.45,1.43-.75,3.98.05,5.45.6,6.58,2.47,1.68,4.17.23,8.15-3.12,8.58.59,14.12-9.34,19.66-7.36,4.11-17.25,3.2-25.35,5.14Z"/>
      <path class="cls-4" d="M350.32,89.03c-.51,4.62,16.06,20.13,16.03,21.49l-2.92,2.06c.51,2.56,1.93,4.73-.09,6.96-1.07,1.19-11.83,5.43-13.54,5.4-2.1-.04-5.14-2.93-7.55-3.5,2.88-9.98,3.74-21,6.1-30.92.36-1.52-.69-1.76,1.97-1.49Z"/>
      <polygon class="cls-1" points="297.13 209.24 298.34 228.03 276.33 230.03 282.37 206.06 297.13 209.24"/>
      <path class="cls-3" d="M201.34,121.01c-2.41-3.44,10.65-10.94,13.94-9.95,2.86,10.69,7.03-.91,7.66-1.09,6.12-1.74,27.39,5.25,13.36,10.53-11.17,4.21-23.72,4.65-34.96.5Z"/>
      <path class="cls-4" d="M404.15,109.84c-.34.4-8.98,2.8-10.12,2.85-2.24.09-17.39-2.55-17.7-4.18,2.93-5.24,6.23-10.34,7.01-16.48,3.33-.14,5.09,2.73,8.31,4.18,2.59,1.16,13.81,4.14,14.26,4.75.82,1.11-1.34,8.39-1.76,8.88Z"/>
      <path class="cls-1" d="M251.33,254.04c-9.52,7.16-17.2,18.52-20.36,30.13-.53,1.93-.72,3.86-.65,5.85h-5c1.57-5.45-2.29-19.02-.47-22.98.92-2.01,9.48-9.21,11.79-10.2,4.6-1.98,9.87-1.76,14.69-2.8Z"/>
      <path class="cls-4" d="M706.33,402.03c-4.36,8.73-6.94,17.45-9.01,26.99l-11.79-5.19c-.23-.26-1.06-4.62-.95-5.19s5.35-9.7,5.77-10.09c.66-.62,15.36-7.13,15.97-6.52Z"/>
      <path class="cls-4" d="M413.33,417.03l-7.02,20.98c-6-1.43-10.83-1.91-16.97-.99-.57-1.77,1.48-2.32,1.7-3.64.29-1.76-1.24-4.92.57-7.09.53-.63,9.22-5.11,10.75-5.75,3.49-1.46,7.45-2.1,10.98-3.51Z"/>
      <path class="cls-4" d="M996.07,106.28c1.25,1.32,1.29,3.99,1.26,5.74l-19.74-1.75c-5.59-4.97-11.52-11.28-8.25-19.24,3.83,2.92,7.06,6.77,11.3,9.19,3.66,2.09,14.02,4.57,15.43,6.06Z"/>
      <path class="cls-4" d="M934.32,77.03c1.36,9.33,13.57,13.82,20.93,18.14l-.92,5.86c-7.36-3.99-19.55-1.69-24.04-9.44-2-3.44.22-9.64,1.81-13.3.61-1.39.13-1.55,2.23-1.26Z"/>
      <path class="cls-4" d="M305.33,442.03c-6.94-1.49-12.1-2.82-18.99,0,.94-4.86,3.92-6.49,1.99-11.99,8.49.47,15.88-4.28,22.51-8.98l-5.52,20.98Z"/>
      <path class="cls-4" d="M344.33,417.03l-6.93,21.56-12.07.44c-1.36-3.36,1.71-6.36,1.89-8.45.15-1.69-1.72-2.79.01-5.11,1.07-1.43,16.41-9.15,17.1-8.44Z"/>
      <path class="cls-4" d="M839.08,82.77c-3.55,4.29-17.08-5.62-20.26-8.69-6.64-6.42-6.76-6.18-5.47-16.05,4.01,2.71,6.82,6.92,10.52,9.97,2.99,2.47,15.55,9.22,16.04,10.02.53.87-.26,4.06-.83,4.75Z"/>
      <path class="cls-1" d="M822.33,383.03c.34,1.5-.55,2.19-1.19,3.3-1.51,2.65-16.15,24.48-19.8,20.69-.49-12.38,6.25-27.59,20.99-23.99Z"/>
      <path class="cls-4" d="M436.31,436.03c-4.67-1.51-8.07-2.11-12.94-1.04-2.57-7.3-.11-5.88,2.61-9.31,5.1-6.42,9.08-11.7,17.34-14.65-2.62,8.39-6.46,16.09-7.01,25Z"/>
      <path class="cls-4" d="M76.33,141.03h-36.5c-.46,0-5.79-1.57-6.06-1.94-.45-.63-.71-3.7-.99-5.03-.26-1.24-1.2-1.11,1.06-1.06,9.9.23,26.69,1.12,35.74,4.28,2.08.73,5.69,1.72,6.74,3.76Z"/>
      <path class="cls-4" d="M769.08,48.27c1.99,2.12,3.05,12.98.73,15.78-1.06,0-10.86-3.7-11.24-4.26-1.18-1.74-2.74-8.1-1.34-10.19l-3.96-2.11c-1.95-8.78,14.06-1.08,15.81.79Z"/>
      <path class="cls-4" d="M444.34,95.03c.14,7-9.47,11.7-15.96,9.45-1.11-.38-7.71-5.1-7.91-6.08l6.49-9.29c5.63,3.32,10.27,7.03,17.38,5.93Z"/>
      <path class="cls-4" d="M868.2,267.15l.08,2.81c-7.27,3.08-13.97-1.42-21.14,1.38-5.27,2.06-6.85,8.44-12.8,8.68,2.42-4.75-1.7-9.41,2.48-13.02,4.59-3.96,8.97-.89,14.02-.88,5.96,0,11.36-3.04,17.37,1.03Z"/>
      <path class="cls-4" d="M902.64,83.71c2.84,2.36,7.39,1.89,10.26,4.29l-1.72,5.86c-6.33,1.43-20.19-2.57-19.91-10.29.1-2.94,2.19-5.54,2.07-8.54,1.83-1.68,8.28,7.83,9.3,8.68Z"/>
      <path class="cls-4" d="M997.34,349.02c-.64-2.28,1.84-3.77,1.99-5.53.52-5.98-3.27-5.03,4.09-10.88,4.17-3.31,8.73-4.53,11.9-9.59-.02,11.82-5.55,23.59-17.98,25.99Z"/>
      <path class="cls-4" d="M977.32,347.03c1.03,4.79,4.49,12.08,2.27,16.76-1.19,2.52-12.98,9.9-15.26,7.22,3.33-2.53,1.78-5.84,2.56-7.9,1.13-2.98,5.71-12.28,7.6-14.43.89-1.02.97-2.1,2.82-1.66Z"/>
      <path class="cls-4" d="M549.33,432.02l-14.99-2.49c.46-2.29,4.56-3.95,4.89-5.16.31-1.14-.83-2.64-.65-3.73.3-1.89,11.43-11.68,14.27-12.59-2.39,7.71-3.68,15.81-3.52,23.97Z"/>
      <path class="cls-4" d="M514.33,409.04c-4.48,6.92-5.24,15.03-7.14,22.85l-11.86.13,1.05-5.44-2.04-2.04c8.39-2.55,11.24-13.19,19.99-15.51Z"/>
      <path class="cls-4" d="M631.33,414.03l-2.01,17c-5.92-1.97-12.01-.82-17.99-.02l4.99-10.5,15.01-6.48Z"/>
      <path class="cls-4" d="M503.34,86.04c-1.71,3.42,1.87,6.83-3.75,7.76-1.49.25-12.09-1.97-13.83-2.7-5.17-2.17-3.2-8.3-4.42-13.07,7.52,2.37,13.7,7.99,22,8Z"/>
      <polygon class="cls-4" points="375.33 422.04 370.33 440.04 357.33 438.03 357.49 433.18 362.18 430.44 361.39 426.11 375.33 422.04"/>
      <path class="cls-4" d="M1048.33,170.03v-24c4.28.14,10.24,11.41,10,14.43-.13,1.69-1.64,2.99-1.82,4.29-.26,1.87,1.4,3.61.35,5.33l-8.53-.04Z"/>
      <path class="cls-1" d="M878.33,384.04c-7.38,7.24-19.31,5.2-26.99,11.99-3.86-19.05,15.1-12.43,26.99-11.99Z"/>
      <path class="cls-4" d="M724.34,70.03l-.91,4.43,2.9,2.55c-11.56,4.26-22.58,1.34-19.99-12.98l18,6Z"/>
      <path class="cls-4" d="M614.33,85.03v-14l15.98,9.51c4.53,10.98-10.16,6.65-15.98,4.49Z"/>
      <path class="cls-4" d="M741.33,407.03l-1,17.99c-2.73.15-4.98-1.43-7.57-1.92-3.45-.65-8.04,1.56-7.46-4.49.08-.83,2.01-.8,2.52-1.6.76-1.2.19-3.06.73-3.78.43-.57,10.98-5.34,12.78-6.2Z"/>
      <path class="cls-4" d="M537.32,84.04c1.22,11.83-13.9,5.73-20.08,2.35l-.9-10.36c7.25,2.44,12.62,8.93,20.98,8.01Z"/>
      <path class="cls-4" d="M273.33,425.03c1.76,2.03-4.33,12.39-4.78,14.75-.28,1.49,1.08,3.14.34,4.26-1.51,2.29-9.52-1.16-12.56-.03,4.48-2.61,1.65-7.66,2.44-8.98.45-.76,13.98-10.67,14.56-10Z"/>
      <path class="cls-4" d="M451.34,82.03l19.99,8.49,1.08,2.01c-3.44,10.38-11.11,1.35-18.03-.05l-3.04-10.45Z"/>
      <path class="cls-4" d="M474.33,414.03l-5.03,19.97-9.97-1.98c1.23-2.65-.54-5.05.92-7.53.72-1.23,13.03-11.55,14.09-10.46Z"/>
      <path class="cls-4" d="M692.33,76.04c-.09,2.88-3.24,2.04-2,5.98-4.11.09-10.75.34-14.27-1.98-2.37-1.56-1.62-10.23-1.72-13l17.99,9.01Z"/>
      <path class="cls-4" d="M590.33,415.04l-2,16.99c-5.61-2.4-10.31-2.19-15.99-3.01.38-.99,1.91-5.62,2.14-5.83.96-.85,4.83.52,5.73-.31.33-.3.1-2.25,1.12-3.33.68-.72,8.21-5.22,9.01-4.51Z"/>
      <path class="cls-4" d="M796.33,401.03c1.08,7.64-1.28,13.88-2,20.99l-11.99-2.01c2.52-2.18,2.32-5.76,3.57-7.92.86-1.49,2.54-2.24,3.44-3.56,1.77-2.61,2.77-7.19,6.99-7.5Z"/>
      <path class="cls-4" d="M791.33,64.04c.33,2.43-2.06,3.49-3.93,4.12l.93,3.86c-6.81,3.33-8.47-2.23-14.09-4.6l2.09-10.39,15,7Z"/>
      <path class="cls-1" d="M458.33,406.03l-.48,13.01-13.51,5.98c-2.2-2.18,8.45-19.99,13.99-18.99Z"/>
      <path class="cls-4" d="M669.34,428.03c-2.43.08-4.82.12-7.24-.29-8.22-1.4-1.41-3.94-1-6.32.21-1.2-1.24-2.92-.31-4.35l10.54-10.03c.21,7.34-3.54,13.82-1.99,20.99Z"/>
      <path class="cls-4" d="M586,76.38c.73.49,1.21,2.08,2.54,2.92,2.45,1.54,5.07,2.09,7.37,3.72l-.64,5.95c-5.84,1.47-9.45-2.23-14.84-3.02l.91-10.91c.26-.3,3.85.81,4.66,1.35Z"/>
      <path class="cls-4" d="M764.33,67.04c-.36,3.83-5.07,1.91-2,6.98-5.97-.43-10.5,3.06-14.98-2.57,1.98-3.14,2.41-5.68,1.98-9.42l14.99,5Z"/>
      <path class="cls-3" d="M84.33,149.53c1.34-4.33,10.49-.49,13.01,1.01-3.5,5.62-9.74,9.46-11.02,16.49-.38.28-1.99-1.31-1.99-1.5,0-3.45-.71-13.7,0-16Z"/>
      <path class="cls-4" d="M659.24,78.95c-4.42.26.89,6.52-4.65,6.9-3.05.21-5.48-3.41-8.64-3.71l-.61-11.1c.47-.52,12.34,5.12,12.93,5.56.94.71,1.46,1.08.97,2.36Z"/>
      <path class="cls-1" d="M344.33,289.03c.26-1.81,2.06-1.7,3.24-2.26,3.19-1.5,16.92-7.93,19.25-7.75l.51,10.01h-23Z"/>
      <path class="cls-3" d="M889.33,279.03c-2.49,7.16-6.2,14.59-13.99,16.99-.54-5.3,2.59-9.71,2.43-15.06l11.56-1.93Z"/>
      <path class="cls-1" d="M607.33,403.03l-.48,13.01-12.51,4.98c-1.09-1.18,10.28-21.04,12.99-17.99Z"/>
      <path class="cls-3" d="M34.34,145.03l-.46,3.03-6.03,11.95c-2.66-1.29-5.82-13.81-3.46-16.95l9.95,1.97Z"/>
      <path class="cls-1" d="M746.34,412.02c.2-2-.4-4.39.03-6.29.17-.73,1.65-.78,1.89-1.48,1.66-4.77,1.86-9.63,7.07-12.23-.29,8.58,2.52,19.19-8.98,20Z"/>
      <polygon class="cls-4" points="768.33 408.03 765.33 424.03 758.36 423 759.49 411.18 768.33 408.03"/>
      <path class="cls-3" d="M130.33,253.04l-13.29,4.86c-2.8-.79-6.36-8.84-5.7-11.86,6.32,2.36,11.8,7.07,18.99,7.01Z"/>
      <path class="cls-4" d="M846.33,387.03v14.5c0,.36-1.02,1.61-1.16,2.33-6.18,1.83-8.64-4.68-6.32-9.82.4-.9,5.87-7.05,7.48-7.01Z"/>
      <path class="cls-3" d="M191.2,190.88l-11.86,7.14c.55-3.72,1.39-12.67,4.99-14.58,2.38-1.26,8.45,4.75,6.87,7.43Z"/>
      <path class="cls-4" d="M552.96,77.41c.61.47,1.01,1.67,2,2.45,2.49,1.96,8.8,3.89,8.45,7.66-.63,6.69-7.23-1.38-8.55-2.46-4.34-3.56-7.79-3.56-7.52-11.02.73-.79,4.7,2.66,5.62,3.38Z"/>
      <path class="cls-1" d="M275.33,289.03c-2.06,7.77-2.01,17.73-12.56,11.02-.86-1.36,1.04-3.82,1.92-4.68,1.11-1.09,9.69-7.29,10.65-6.34Z"/>
      <path class="cls-4" d="M1031.33,131.02c-8.26,2.61-14.66-7.27-12.99-14.99,2.38,1.64,4.55,3.87,6.5,5.99.83.9,7.15,8.33,6.48,9.01Z"/>
      <path class="cls-3" d="M139.19,168.9l-10.85,7.12c-.77-2.35,1.43-13.51,3.55-13.98,2.38.73,8.98,3.9,7.3,6.86Z"/>
      <path class="cls-3" d="M819.33,304.04c-.61,4.68-3.66,9.25-2,13.99-2.02,1.71-7.21-5.86-7.75-7.74-.49-1.72-.25-3.52-.25-5.26l10-.99Z"/>
      <path class="cls-3" d="M748.33,304.04l-6.5,12.97c-3.99-4.75-2.51-11.47-1.49-16.98l7.99,4.01Z"/>
      <path class="cls-4" d="M871.81,79.57c1.61,1.93,2.07,1.88,1.53,5.46h-10.01s.01-11,.01-11c1.56-1.61,7.42,4.27,8.47,5.53Z"/>
      <path class="cls-4" d="M823.33,393.03c-.78,2.79,1.15,6.1.98,8.45-.14,1.86-1.81,3.22-1.95,5.09-.22,2.92,3.12,5.9-3.49,5.43l-1.12-2.02c1.43-6.08-.95-10.37,3.3-15.69.63-.79-.03-1.85,2.28-1.26Z"/>
      <polygon class="cls-4" points="884.33 388.03 884.34 397.03 870.34 398.02 870.48 394.17 884.33 388.03"/>
      <path class="cls-4" d="M1052.33,186.02c.09,6.15,4.62,21.3-4.99,21-.96-1.02,2.52-16.67,3.02-19.49.3-1.66-.63-1.71,1.97-1.51Z"/>
      <path class="cls-3" d="M82.31,216.04c1.43,4.22,5.07,7.4,8.54,9.98,2.21,3.21-6.64,4.49-8.5,3.99l-2.03-13.48,1.99-.5Z"/>
      <path class="cls-1" d="M841.33,383.03l-2.47,4.02-10.52,8.97c-.1-8.28,3.83-15.01,12.99-12.99Z"/>
      <path class="cls-1" d="M750.33,267.03c.71.72-5.76,11.21-6.53,11.96-1.51,1.48-4.39,2-6.46,2.03-1.9-1.96,8.49-15.41,12.99-13.99Z"/>
      <path class="cls-3" d="M714.33,294.04l-6.49,12.98c-2.2-1.07-2.06-12.39-1.05-14.03,1.37-2.24,5.65,1.27,7.54,1.05Z"/>
      <path class="cls-3" d="M264.1,52.35c1.31.59,4.57,6.2,4.12,7.99-.51,2.01-7.49,6.01-8.88,4.69l2-13c.99-.05,1.8-.11,2.76.32Z"/>
      <path class="cls-3" d="M233.33,254.01c-4.8,1.09-6.64,7.72-11.99,8.01-2.12-2.32,9.1-20.95,11.99-8.01Z"/>
      <path class="cls-4" d="M946.33,372.03c1.79,8.04-11.15,15.76-10.55,5.01l10.55-5.01Z"/>
      <path class="cls-3" d="M258.18,294.16c1.4,2.4-2.93,5.12-4.29,6.93-1.55,2.05-2.11,6.11-5.56,5.93.9-5.51,2.33-18.99,9.85-12.86Z"/>
      <path class="cls-1" d="M261.33,273.04l-4.81,5.68-6.68,12.29c-3.33.19,1.11-10.85,1.84-12.14,2.19-3.8,5.58-4.76,9.65-5.84Z"/>
      <path class="cls-4" d="M1034.34,278.02c1.8-5.21,2.62-12.27,6.98-15.99,2.28,6.87.88,14.4-6.98,15.99Z"/>
      <path class="cls-3" d="M278.34,323.03c-1.43-4.36-2.59-8.28-2.01-12.99l6.93,2.62c.26,1.77-2.55,12.18-4.92,10.37Z"/>
      <path class="cls-1" d="M873.33,275.03l-.97,3.52c-8.69,1.37-17.27-1.49-26.02.47,3.8-5.26,10.17-1.7,15.52-1.94,3.95-.18,7.48-2.18,11.47-2.04Z"/>
      <path class="cls-4" d="M1044.45,238.9l-3.19-2.42,1.08-10.45c5.38,1.14,8.33,11.54,2.11,12.86Z"/>
      <polygon class="cls-3" points="890.33 26.03 885.25 34.94 878.3 32.47 878.98 29.95 890.33 26.03"/>
      <path class="cls-4" d="M926.33,78.03l-1,8-8.99-2.01c-1.49-1.58,7.52-7.84,9.99-5.99Z"/>
      <path class="cls-3" d="M235.34,284.02c-.65-.7,3.32-12.47,6.36-11.93l2.54,3.28c-.97,1-7.32,10.35-8.9,8.64Z"/>
      <path class="cls-4" d="M913.33,384.03c.32,4.53.74,8.64-4.88,8.92-1.21-2.64-2.78-4.77-2.08-7.89l6.96-1.03Z"/>
      <path class="cls-3" d="M951.33,75.03l-4.99,7.58c-10.63-1.69-2.38-8.69,4.99-7.58Z"/>
      <path class="cls-3" d="M782.34,305.03c.33.34-.78,8.06-1.04,9.48-.3,1.63.67,1.74-1.95,1.51l-3.01-10.99h6Z"/>
      <path class="cls-4" d="M256.2,83.17l1.13,4.86h-11s0-2.99,0-2.99c3.7.51,6.2-3.13,9.87-1.87Z"/>
      <path class="cls-3" d="M179.34,67.02c-1.31-1.31,3.36-10.59,5.98-10.99l-1.47,10.02-4.51.98Z"/>
      <path class="cls-3" d="M216.33,54.03c-.19,2.14-4.01,13.97-6.99,10.99-1.57-2.53,5.29-12.77,6.99-10.99Z"/>
      <path class="cls-3" d="M239.33,59.03c-.92,3.51-2.78,6.06-1.99,10h-5c-1.19-1.11,3.65-10.77,6.99-10Z"/>
      <path class="cls-3" d="M918.33,49.03c.66.55-4.23,5.83-4.59,5.94-2.66.79-5.02-2.59-4.41-4.93l9-1Z"/>
      <path class="cls-3" d="M861.33,18.03l-5.01,7.56-3.98-.57c-1.12-1.42,6.2-8.8,8.99-6.99Z"/>
      <path class="cls-1" d="M245.33,282.03v7s-5.99-.01-5.99-.01c-.79-.68,4.8-8.36,5.99-6.99Z"/>
      <polygon class="cls-3" points="854.34 41.02 854.34 40.04 857.31 39.52 855.82 41.02 854.34 41.02"/>
      <path class="cls-4" d="M273.83,423.03c.65.33.65.67,0,1v-1Z"/>
      <path class="cls-1" d="M275.83,287.03c.65.33.65.67,0,1v-1Z"/>
      <path class="cls-3" d="M110.83,244.03c.65.33.65.67,0,1v-1Z"/>
      <path class="cls-2" d="M648.04,182.16l7.89,2.83c.6,7.66-.32,13.81-10.06,12.03-7.92-1.45-2.78-12.4,2.17-14.87Z"/>
      <path class="cls-2" d="M497.02,187.71c-7.95,7.27-17.29-5.69-7.63-12.12,7.44-4.95,13.87,6.41,7.63,12.12Z"/>
      <path class="cls-2" d="M698.09,140.79c-7.76,6-18.8-5.36-11.33-10.84,5.38-3.95,15.25,4.42,11.33,10.84Z"/>
      <path class="cls-2" d="M466.17,124.19l2.93,6.53c-1.1,6.87-9.91,6.07-14.59,3.14-1.82-8.58,3.97-12.07,11.66-9.67Z"/>
      <path class="cls-2" d="M729.07,160.21c10.46-2.18,12.1,16.7-1.79,12.36-6.8-2.12-4.03-11.15,1.79-12.36Z"/>
      <path class="cls-2" d="M895.16,124.85c-5.63,3.54-11.62,5.47-14.64-2.12,2.87-11.21,15.88-10.47,14.64,2.12Z"/>
      <path class="cls-2" d="M458.95,156.31c9.42-1.07,13.28,13.48,2.17,12.52-12.12-1.05-8.02-11.85-2.17-12.52Z"/>
      <path class="cls-2" d="M658.1,115.79c-2.75,2.76-9.68.74-12.3-1.75-1.53-18.12,20.64-6.59,12.3,1.75Z"/>
      <path class="cls-2" d="M379.54,144.8c-7.12-8.18,2.84-18.11,9.81-9.3,5.23,6.61-3.49,11.33-9.81,9.3Z"/>
      <path class="cls-2" d="M760.58,106.79c-5.38-8.24,9.7-14.15,12.99-6.5,3.82,8.88-7.2,9.1-12.99,6.5Z"/>
      <path class="cls-2" d="M848,127.16c9.24-3.11,12.24,15.63-1.11,13.89-7.02-.92-1.46-13.02,1.11-13.89Z"/>
      <path class="cls-2" d="M818.05,101.17c4.64-1.28,6.44,4.66,7.1,8.23-3.23,3.51-7.95,7.81-12.37,3.64-2.97-2.8,2-10.97,5.27-11.87Z"/>
      <path class="cls-2" d="M611.03,121.19c11.06-3.37,10.98,19.21-2.01,11.64-4.67-2.72-1.41-10.6,2.01-11.64Z"/>
      <path class="cls-2" d="M780.99,133.25c7.35-.64,11.38,12.26.83,12.88-9.76.57-6.44-12.39-.83-12.88Z"/>
      <path class="cls-2" d="M723.2,104.17c.29.18,2.09,5.65,2.13,6.47.26,5.25-7.96,6.81-11.75,4.15-5.26-5.94,5.1-13.52,9.62-10.62Z"/>
      <path class="cls-2" d="M429.03,138.74c-.45.57-4.42,3.24-5.16,3.27-9.13-1.09-5.16-14.73,1.93-14,4.74,1.12,6.05,7.16,3.23,10.73Z"/>
      <path class="cls-2" d="M726.08,199.3c4.21,3.8,2.46,11.45-4.35,11.68-11.29.38-2.9-18.22,4.35-11.68Z"/>
      <path class="cls-2" d="M534.54,129.24c2.55-1.49,7.41.8,8.37,3.73,3.8,11.67-14.35,10.94-11.36.77.08-.28,2.76-4.37,2.99-4.51Z"/>
      <path class="cls-2" d="M500.04,113.16c4.58-1.22,13.45,2.02,8.3,8.38-8.06,9.94-17-6.05-8.3-8.38Z"/>
      <path class="cls-2" d="M448.48,202.89c-1.46-6.35,1.98-15.75,8.9-9.4s-1.23,13.95-8.9,9.4Z"/>
      <path class="cls-2" d="M576.08,184.18c10.1,2.03,5.58,15.95-4.11,12.7-4.15-4.12-.99-10.78,4.11-12.7Z"/>
      <path class="cls-2" d="M535.99,165.24c8.11-.74,9.01,16.68-2.66,12.29-3.69-1.81-2.94-11.78,2.66-12.29Z"/>
      <path class="cls-2" d="M674.63,217.32c3.78-4.55,9.86-.98,10.63,4.21-1.69,10.45-18.17,4.86-10.63-4.21Z"/>
      <path class="cls-2" d="M974.99,129.24c2.92-.26,7.02,4.45,7.35,7.33-.1,4.06-13.05,7.34-13.09-.02-.02-2.9,2.77-7.05,5.74-7.32Z"/>
      <path class="cls-2" d="M686.05,175.24c10.23-3.01,9.82,14.99-1.75,11.36-5.07-1.59-1.84-10.3,1.75-11.36Z"/>
      <path class="cls-2" d="M955.06,174.24c13.9-3.11,8.26,19.26-4.62,7.14.08-3.33,1.11-6.35,4.62-7.14Z"/>
      <path class="cls-2" d="M396.02,208.23c15.03-4.61,5.65,20.03-4.52,7.16.43-2.22,2.35-6.49,4.52-7.16Z"/>
      <path class="cls-2" d="M659.98,150.19c3.52,1,7,1.98,6.36,6.26-1.76,11.76-21.36,3.54-6.36-6.26Z"/>
      <path class="cls-2" d="M937.08,143.79c-1.64,1.62-7.45,1.84-9.35.34-7.14-17.51,16.75-7.63,9.35-.34Z"/>
      <path class="cls-2" d="M565.57,160.78c-4.71-4.52,6.4-15.31,10.23-6.73,3.51,7.85-6.7,10.13-10.23,6.73Z"/>
      <path class="cls-2" d="M850.45,186.16c3.31-2.04,7.27,3.85,7.72,6.62,1.07,6.62-8.64,8.99-10.42,2.27-.4-1.5,2.18-8.58,2.7-8.9Z"/>
      <path class="cls-2" d="M567.55,112.24c5.69-4.05,13.15,2.84,8.87,8.38-5.71,7.38-14.32-4.51-8.87-8.38Z"/>
      <path class="cls-2" d="M797.06,231.22c8.04-1.72,7.43,9.33,3.61,10.65-8.21,2.84-11.75-8.91-3.61-10.65Z"/>
      <path class="cls-2" d="M1013.63,241.72c-3.61-3.02-2.72-10.78,2.17-10.8,10.49-.03,5.31,17.05-2.17,10.8Z"/>
      <path class="cls-2" d="M991.05,192.21c9.14-2.66,9.86,13.92-.77,10.38-5.08-1.69-3.39-9.17.77-10.38Z"/>
      <path class="cls-2" d="M502.09,148.27c3.2,3.22.71,9.56-4.26,9.86-11.42.68-2.53-16.69,4.26-9.86Z"/>
      <path class="cls-2" d="M391.1,183.19c3.95-.39,8.51,9.09,1.5,10.63-10.02,2.2-9.27-9.87-1.5-10.63Z"/>
      <path class="cls-2" d="M875.54,155.25c8.08-4.61,14.3,10.92,2.28,9.86-6.28-.56-5.03-8.29-2.28-9.86Z"/>
      <path class="cls-2" d="M341,224.2c9.86-3.45,11.79,10.46,2.84,9.93-5.71-.34-7.1-8.44-2.84-9.93Z"/>
      <path class="cls-2" d="M796.18,215.87c-1.98,1.22-7.32-.37-7.87-3.36-.92-5.04,2.43-5.62,5.67-8.31,6.33-.8,4.44,10.28,2.2,11.66Z"/>
      <path class="cls-2" d="M1005,156.17c6.97-2.4,10.34,8.54,3.37,10.45-7.2,1.97-8.94-8.53-3.37-10.45Z"/>
      <path class="cls-2" d="M1027.06,181.18c6.84-1.86,6.92,10.65,2.57,11.72-7.35.71-8.56-10.09-2.57-11.72Z"/>
      <path class="cls-2" d="M375.21,225.17c.21.13,1.85,4.09,1.93,4.6.85,5.61-8.96,8.88-9.84,2.7-.54-3.79,4.89-9.16,7.91-7.3Z"/>
      <path class="cls-2" d="M908.58,190.78c-3.61-3.66.39-11.74,5.77-9.28,3.19,3.68,2.69,8.15-1.73,10.38-1.15.28-3.23-.28-4.04-1.1Z"/>
      <path class="cls-2" d="M761.09,223.29l.77,7.75c-2.29,2.26-5.01,2.47-7.54.51-3.81-4.24,1.72-11.83,6.77-8.26Z"/>
      <path class="cls-2" d="M359.03,196.2c8.35-2.58,8.22,12.83-.43,9.07-4.76-2.07-2.9-8.04.43-9.07Z"/>
      <path class="cls-2" d="M810.44,164.91c-1.7-4.7,4.02-12.39,7.98-7.47,3.63,4.51-3.17,10.48-7.98,7.47Z"/>
      <path class="cls-2" d="M949.07,418.19c5.99-1.08,10.89,4.6,6.7,9.78-4.26,5.27-14.5,1.04-14.46-2.44.02-1.99,5.78-6.98,7.77-7.34Z"/>
      <path class="cls-2" d="M1053.37,337.97c-1.65-9.87,16.01-12.31,12.52-1.88-1.96,5.87-8.32,3.5-12.52,1.88Z"/>
      <path class="cls-2" d="M1025.12,378.21c.53-.04,1.04-.27,1.59-.1,3.3,2.38,3.27,9.3-.6,11.19-8.9,4.35-12.29-10.23-.99-11.09Z"/>
      <path class="cls-2" d="M919.06,409.26c5.45.08,5.4,12.01-1.1,11.75-9.04-.37-6.93-11.86,1.1-11.75Z"/>
      <path class="cls-2" d="M1059.05,281.21c8.8-2.62,8.84,14.98-1.48,10.08-5.05-2.4-2.48-8.9,1.48-10.08Z"/>
      <path class="cls-2" d="M976.04,389.19c15.66-1.06,1.81,18.65-3.74,6.3l3.74-6.3Z"/>
      <path class="cls-2" d="M1021.03,355.35c2.66,2.31,3.83,9.25-.41,10.51-7.26,2.16-9.28-7.76-3.26-11.37,1.3-.65,2.67,0,3.67.86Z"/>
      <path class="cls-2" d="M585.05,450.24c10.91-3.26,9.01,15.24-3.25,6.81-1.6-2.44.81-6.08,3.25-6.81Z"/>
      <path class="cls-2" d="M432.06,454.19c6.72-1.01,7.69,9.49.67,9.85-6.29.32-7.06-8.89-.67-9.85Z"/>
      <path class="cls-2" d="M676.31,454.99c-2.42.89-10.98,2.71-10.98-1.41,1.07-3.66,2.07-6.75,6.5-6.59,2.37-.18,5.27,6.86,4.48,8Z"/>
      <path class="cls-2" d="M862.19,432.89c-7.33,5.25-14.29-6.54-6.3-7.86,5.68-.94,7.36,2.77,6.3,7.86Z"/>
      <path class="cls-2" d="M731.18,450.88c-2.97,4.71-16.94-3.96-5.19-8.64,3.96-.35,7.05,5.7,5.19,8.64Z"/>
      <path class="cls-2" d="M1067.08,229.78c-2.15,2.24-10.72-.93-8.25-5.75,3.67-7.17,13.97-.23,8.25,5.75Z"/>
      <path class="cls-2" d="M1079.09,257.78c-3.15,3.2-9.87-1.01-8.3-4.72,3.72-8.8,14.03-1.1,8.3,4.72Z"/>
      <path class="cls-2" d="M292.2,464.9c-2.3.97-5.26,1.99-7.46.22-5.63-9.97,9.57-11.89,7.46-.22Z"/>
      <path class="cls-2" d="M386.99,452.25l2.73.86,1.59,2.35c-1.06,7.01-5.4,8.8-9.88,2.94.64-2.26,3.14-5.93,5.57-6.15Z"/>
      <path class="cls-2" d="M323.04,456.16l3.3.34c5.82,5.38-1.58,12.02-6.92,6.89-.71-2.18,1.41-6.61,3.62-7.23Z"/>
      <path class="cls-2" d="M818.58,428.27c3.01-3,8.8-1.94,7.75,4.21-1.26,7.35-13.44,1.44-7.75-4.21Z"/>
      <path class="cls-2" d="M359.58,456.28c3.06-3.07,9-.18,8.7,4.13-4.39,6.79-14.14,1.32-8.7-4.13Z"/>
      <path class="cls-2" d="M229.58,457.28c4.62-4.62,14.14,5.36,3.79,7.36-4.91.95-6.26-4.88-3.79-7.36Z"/>
      <path class="cls-2" d="M783.08,442.19c8.75-1.63,7.34,12.44-3.32,6.91-1.37-3.29-.32-6.24,3.32-6.91Z"/>
      <path class="cls-2" d="M624.03,453.2c5.58-1.69,6.75,3.32,4.37,7.39-8.56,3.94-10.41-5.55-4.37-7.39Z"/>
      <path class="cls-2" d="M494.42,458.93c-2.26-7.57,10.24-10.08,8.95-2.42-.65,3.87-5.98,4.07-8.95,2.42Z"/>
      <path class="cls-2" d="M459.04,451.15c5.33-1.37,5.4,7.93.66,9.73-6.27-.07-5.27-8.55-.66-9.73Z"/>
      <path class="cls-2" d="M547.27,454.09c1.96,8.01-11.52,8.72-8.47,1.97,1.68-3.73,5.27-2.89,8.47-1.97Z"/>
      <path class="cls-2" d="M898.07,428.17c3.34-.46,6.58,4.97,4.29,6.39-6.63,3.34-11.71-5.36-4.29-6.39Z"/>
      <path class="cls-2" d="M209.23,459.13l-1.49,4.82c-10.25,4.12-7.16-9.39,1.49-4.82Z"/>
      <path class="cls-2" d="M236.09,133.28c10.26-1.32,38.12-.3,28.66,16.66-6.64,11.91-25.05,12.2-36.65,9.81-28.25-5.83-11.03-24.03,7.98-26.47ZM260.11,141.24c-7.34-3.97-17.87-3.74-26.02-1.96-8.08,1.77-24.07,9.25-8.55,14.05,6.57,2.03,17.66,2.66,24.2.6,4.36-1.37,13.4-7.36,10.37-12.7Z"/>
      <path class="cls-2" d="M239.25,212.11l-.38,3.96c-3.67,2.21-8.23,2.54-11.57,5.42-3.72,3.2-5.56,9.87-9.47,13.53-2.52,2.36-14.02,9.16-16.02,5.01-1.79-4.67,6.69-5.99,9.86-8.17,6.46-4.42,6.79-10.69,11.32-14.68,2.19-1.92,14.41-7.78,16.26-5.08Z"/>
      <path class="cls-2" d="M43.08,110.19c9.12-1.58,8.12,12.38-.8,9.39-4.69-1.57-4.16-8.53.8-9.39Z"/>
      <path class="cls-2" d="M61,99.17c6.15-2.04,10.41,6.69,3.61,8.69-7.32,2.15-7.75-7.32-3.61-8.69Z"/>
      <path class="cls-2" d="M268.43,191.93c-1.29-.8-1.36-6.61.39-7.91,8.81-3.98,5.38,11.52-.39,7.91Z"/>
      <path class="cls-2" d="M325.04,201.2c7.13-2.02,4.56,8.6-2.1,7.78-3.5-1.85-.81-6.96,2.1-7.78Z"/>
      <path class="cls-3" d="M260.11,141.24c3.03,5.34-6.01,11.32-10.37,12.7-6.54,2.06-17.64,1.43-24.2-.6-15.52-4.8.47-12.28,8.55-14.05,8.15-1.79,18.68-2.02,26.02,1.96ZM241.07,144.19c-6.42,1.25-3.15,8.37,2.54,6.65,4.37-1.32,2.58-7.65-2.54-6.65Z"/>
      <path class="cls-2" d="M241.07,144.19c5.12-1,6.92,5.34,2.54,6.65-5.69,1.72-8.96-5.41-2.54-6.65Z"/>
    </g>
  </g>
</svg>